# Blender 3.3.21
# www.blender.org
mtllib thuja.mtl
o Cube
v 0.045143 0.000647 -0.072351
v 0.045143 1.967979 -0.072351
v 0.045143 0.000647 0.063265
v 0.045143 1.967979 0.063265
v -0.090473 0.000647 -0.072351
v -0.090473 1.967979 -0.072351
v -0.090473 0.000647 0.063265
v -0.090473 1.967979 0.063265
vn 1.0000 -0.0000 -0.0000
vn -0.0000 -0.0000 1.0000
vn -1.0000 -0.0000 -0.0000
vn -0.0000 -0.0000 -1.0000
vn -0.0000 -1.0000 -0.0000
vn -0.0000 1.0000 -0.0000
vt 0.375000 0.000000
vt 0.375000 1.000000
vt 0.125000 0.750000
vt 0.625000 0.000000
vt 0.625000 1.000000
vt 0.875000 0.750000
vt 0.125000 0.500000
vt 0.375000 0.250000
vt 0.625000 0.250000
vt 0.875000 0.500000
vt 0.375000 0.750000
vt 0.625000 0.750000
vt 0.375000 0.500000
vt 0.625000 0.500000
s 0
f 2/4/1 3/8/1 1/1/1
f 4/9/2 7/13/2 3/8/2
f 8/14/3 5/11/3 7/13/3
f 6/12/4 1/2/4 5/11/4
f 7/13/5 1/3/5 3/7/5
f 4/10/6 6/12/6 8/14/6
f 2/4/1 4/9/1 3/8/1
f 4/9/2 8/14/2 7/13/2
f 8/14/3 6/12/3 5/11/3
f 6/12/4 2/5/4 1/2/4
f 7/13/5 5/11/5 1/3/5
f 4/10/6 2/6/6 6/12/6
o Sphere.003
v 0.000405 1.937859 -0.557978
v 0.000405 2.779309 -0.833877
v 0.000405 3.878717 -0.983193
v 0.000405 4.473712 -1.002408
v 0.000405 5.068708 -0.983193
v 0.000405 6.168116 -0.833877
v 0.038465 1.482469 -0.193749
v 0.075063 1.656023 -0.377738
v 0.108792 1.937859 -0.547303
v 0.138355 2.317146 -0.695928
v 0.162617 2.779309 -0.817901
v 0.180645 3.306587 -0.908535
v 0.191747 3.878717 -0.964347
v 0.195496 4.473712 -0.983193
v 0.191747 5.068708 -0.964347
v 0.180645 5.640838 -0.908535
v 0.162617 6.168116 -0.817901
v 0.138355 6.630279 -0.695928
v 0.108792 7.009566 -0.547303
v 0.075063 7.291402 -0.377738
v 0.038465 7.464956 -0.193749
v 0.075063 1.482469 -0.182648
v 0.146852 1.656023 -0.355961
v 0.213013 1.937859 -0.515688
v 0.271003 2.317146 -0.655689
v 0.318595 2.779309 -0.770585
v 0.353959 3.306587 -0.855961
v 0.375735 3.878717 -0.908535
v 0.383089 4.473712 -0.926287
v 0.375735 5.068708 -0.908535
v 0.353959 5.640838 -0.855961
v 0.318595 6.168116 -0.770585
v 0.271003 6.630279 -0.655689
v 0.213013 7.009566 -0.515688
v 0.146852 7.291402 -0.355961
v 0.075063 7.464956 -0.182648
v 0.108792 1.482469 -0.164619
v 0.213013 1.656023 -0.320597
v 0.309063 1.937859 -0.464347
v 0.393253 2.317146 -0.590345
v 0.462345 2.779309 -0.693749
v 0.513685 3.306587 -0.770585
v 0.545300 3.878717 -0.817901
v 0.555975 4.473712 -0.833877
v 0.545300 5.068708 -0.817901
v 0.513685 5.640838 -0.770585
v 0.462345 6.168116 -0.693749
v 0.393253 6.630279 -0.590345
v 0.309063 7.009566 -0.464347
v 0.213013 7.291402 -0.320597
v 0.108792 7.464956 -0.164619
v 0.138355 1.482469 -0.140357
v 0.271003 1.656023 -0.273006
v 0.393253 1.937859 -0.395255
v 0.500405 2.317146 -0.502408
v 0.588343 2.779309 -0.590345
v 0.653687 3.306587 -0.655689
v 0.693925 3.878717 -0.695928
v 0.707512 4.473712 -0.709514
v 0.693925 5.068708 -0.695928
v 0.653687 5.640838 -0.655689
v 0.588343 6.168116 -0.590345
v 0.500405 6.630279 -0.502408
v 0.393253 7.009566 -0.395255
v 0.271003 7.291402 -0.273006
v 0.138355 7.464956 -0.140357
v 0.162617 1.482469 -0.110794
v 0.318595 1.656023 -0.215015
v 0.462345 1.937859 -0.311066
v 0.588343 2.317146 -0.395255
v 0.691747 2.779309 -0.464347
v 0.768583 3.306587 -0.515688
v 0.815898 3.878717 -0.547303
v 0.831875 4.473712 -0.557978
v 0.815898 5.068708 -0.547303
v 0.768583 5.640838 -0.515688
v 0.691747 6.168116 -0.464347
v 0.588343 6.630279 -0.395255
v 0.462345 7.009566 -0.311066
v 0.318595 7.291402 -0.215015
v 0.162617 7.464956 -0.110794
v 0.000405 1.423867 -0.002408
v 0.180645 1.482469 -0.077065
v 0.353959 1.656023 -0.148854
v 0.513685 1.937859 -0.215015
v 0.653687 2.317146 -0.273006
v 0.768583 2.779309 -0.320597
v 0.853958 3.306587 -0.355961
v 0.906533 3.878717 -0.377738
v 0.924285 4.473712 -0.385091
v 0.906533 5.068708 -0.377738
v 0.853958 5.640838 -0.355961
v 0.768583 6.168116 -0.320597
v 0.653687 6.630279 -0.273006
v 0.513685 7.009566 -0.215015
v 0.353959 7.291402 -0.148854
v 0.180645 7.464956 -0.077065
v 0.191747 1.482469 -0.040468
v 0.375735 1.656023 -0.077065
v 0.545300 1.937859 -0.110794
v 0.693925 2.317146 -0.140357
v 0.815898 2.779309 -0.164619
v 0.906533 3.306587 -0.182648
v 0.962345 3.878717 -0.193749
v 0.981190 4.473712 -0.197498
v 0.962345 5.068708 -0.193749
v 0.906533 5.640838 -0.182648
v 0.815898 6.168116 -0.164619
v 0.693925 6.630279 -0.140357
v 0.545300 7.009566 -0.110794
v 0.375735 7.291402 -0.077065
v 0.191747 7.464956 -0.040468
v 0.195495 1.482469 -0.002408
v 0.383089 1.656023 -0.002408
v 0.555975 1.937859 -0.002408
v 0.707512 2.317146 -0.002408
v 0.831875 2.779309 -0.002408
v 0.924285 3.306587 -0.002408
v 0.981190 3.878717 -0.002408
v 1.000405 4.473712 -0.002408
v 0.981190 5.068708 -0.002408
v 0.924285 5.640838 -0.002408
v 0.831875 6.168116 -0.002408
v 0.707512 6.630279 -0.002408
v 0.555975 7.009566 -0.002408
v 0.383089 7.291402 -0.002408
v 0.195495 7.464956 -0.002408
v 0.191747 1.482469 0.035653
v 0.375735 1.656023 0.072250
v 0.545300 1.937859 0.105979
v 0.693925 2.317146 0.135542
v 0.815898 2.779309 0.159804
v 0.906533 3.306587 0.177832
v 0.962345 3.878717 0.188934
v 0.981190 4.473712 0.192683
v 0.962345 5.068708 0.188934
v 0.906533 5.640838 0.177832
v 0.815898 6.168116 0.159804
v 0.693925 6.630279 0.135542
v 0.545300 7.009566 0.105979
v 0.375735 7.291402 0.072250
v 0.191747 7.464956 0.035653
v 0.180645 1.482469 0.072250
v 0.353959 1.656023 0.144039
v 0.513685 1.937859 0.210200
v 0.653687 2.317146 0.268190
v 0.768583 2.779309 0.315782
v 0.853958 3.306587 0.351146
v 0.906532 3.878717 0.372923
v 0.924284 4.473712 0.380276
v 0.906532 5.068708 0.372923
v 0.853958 5.640838 0.351146
v 0.768583 6.168116 0.315782
v 0.653687 6.630279 0.268190
v 0.513685 7.009566 0.210200
v 0.353959 7.291402 0.144039
v 0.180645 7.464956 0.072250
v 0.162617 1.482469 0.105979
v 0.318595 1.656023 0.210200
v 0.462345 1.937859 0.306251
v 0.588343 2.317146 0.390440
v 0.691747 2.779309 0.459532
v 0.768583 3.306587 0.510872
v 0.815898 3.878717 0.542487
v 0.831874 4.473712 0.553163
v 0.815898 5.068708 0.542487
v 0.768583 5.640838 0.510872
v 0.691747 6.168116 0.459532
v 0.588343 6.630279 0.390440
v 0.462345 7.009566 0.306251
v 0.318595 7.291402 0.210200
v 0.162617 7.464956 0.105979
v 0.138355 1.482469 0.135542
v 0.271003 1.656023 0.268190
v 0.393252 1.937859 0.390440
v 0.500405 2.317146 0.497592
v 0.588343 2.779309 0.585530
v 0.653687 3.306587 0.650874
v 0.693925 3.878717 0.691112
v 0.707511 4.473712 0.704699
v 0.693925 5.068708 0.691112
v 0.653687 5.640838 0.650874
v 0.588343 6.168116 0.585530
v 0.500405 6.630279 0.497592
v 0.393252 7.009566 0.390440
v 0.271003 7.291402 0.268190
v 0.138355 7.464956 0.135542
v 0.108792 1.482469 0.159804
v 0.213013 1.656023 0.315782
v 0.309063 1.937859 0.459532
v 0.393253 2.317146 0.585530
v 0.462345 2.779309 0.688934
v 0.513685 3.306587 0.765770
v 0.545300 3.878717 0.813085
v 0.555975 4.473712 0.829062
v 0.545300 5.068708 0.813085
v 0.513685 5.640838 0.765770
v 0.462345 6.168116 0.688934
v 0.393253 6.630279 0.585530
v 0.309063 7.009566 0.459532
v 0.213013 7.291402 0.315782
v 0.108792 7.464956 0.159804
v 0.075063 1.482469 0.177832
v 0.146852 1.656023 0.351146
v 0.213013 1.937859 0.510872
v 0.271003 2.317146 0.650874
v 0.318595 2.779309 0.765770
v 0.353959 3.306587 0.851146
v 0.375735 3.878717 0.903720
v 0.383088 4.473712 0.921471
v 0.375735 5.068708 0.903720
v 0.353959 5.640838 0.851146
v 0.318595 6.168116 0.765770
v 0.271003 6.630279 0.650874
v 0.213013 7.009566 0.510872
v 0.146852 7.291402 0.351146
v 0.075063 7.464956 0.177832
v 0.038465 1.482469 0.188934
v 0.075063 1.656023 0.372922
v 0.108791 1.937859 0.542487
v 0.138355 2.317146 0.691112
v 0.162617 2.779309 0.813085
v 0.180645 3.306587 0.903720
v 0.191747 3.878717 0.959532
v 0.195495 4.473712 0.978377
v 0.191747 5.068708 0.959532
v 0.180645 5.640838 0.903720
v 0.162617 6.168116 0.813085
v 0.138355 6.630279 0.691112
v 0.108791 7.009566 0.542487
v 0.075063 7.291402 0.372922
v 0.038465 7.464956 0.188934
v 0.000405 1.482469 0.192683
v 0.000405 1.656023 0.380276
v 0.000405 1.937859 0.553162
v 0.000405 2.317146 0.704699
v 0.000405 2.779309 0.829062
v 0.000405 3.306587 0.921472
v 0.000405 3.878717 0.978377
v 0.000405 4.473712 0.997592
v 0.000405 5.068708 0.978377
v 0.000405 5.640838 0.921472
v 0.000405 6.168116 0.829062
v 0.000405 6.630279 0.704699
v 0.000405 7.009566 0.553162
v 0.000405 7.291402 0.380276
v 0.000405 7.464956 0.192683
v -0.037655 1.482469 0.188934
v -0.074253 1.656023 0.372922
v -0.107981 1.937859 0.542487
v -0.137544 2.317146 0.691112
v -0.161807 2.779309 0.813085
v -0.179835 3.306587 0.903719
v -0.190937 3.878717 0.959532
v -0.194685 4.473712 0.978377
v -0.190937 5.068708 0.959532
v -0.179835 5.640838 0.903719
v -0.161807 6.168116 0.813085
v -0.137544 6.630279 0.691112
v -0.107981 7.009566 0.542487
v -0.074253 7.291402 0.372922
v -0.037655 7.464956 0.188934
v -0.074253 1.482469 0.177832
v -0.146041 1.656023 0.351146
v -0.212202 1.937859 0.510872
v -0.270193 2.317146 0.650874
v -0.317784 2.779309 0.765770
v -0.353148 3.306587 0.851145
v -0.374925 3.878717 0.903719
v -0.382278 4.473712 0.921471
v -0.374925 5.068708 0.903719
v -0.353148 5.640838 0.851145
v -0.317784 6.168116 0.765770
v -0.270193 6.630279 0.650874
v -0.212202 7.009566 0.510872
v -0.146041 7.291402 0.351146
v -0.074253 7.464956 0.177832
v -0.107981 1.482469 0.159804
v -0.212202 1.656023 0.315782
v -0.308253 1.937859 0.459532
v -0.392442 2.317146 0.585530
v -0.461534 2.779309 0.688934
v -0.512875 3.306587 0.765770
v -0.544490 3.878717 0.813085
v -0.555165 4.473712 0.829061
v -0.544490 5.068708 0.813085
v -0.512875 5.640838 0.765770
v -0.461534 6.168116 0.688934
v -0.392442 6.630279 0.585530
v -0.308253 7.009566 0.459532
v -0.212202 7.291402 0.315782
v -0.107981 7.464956 0.159804
v -0.137544 1.482469 0.135542
v -0.270193 1.656023 0.268190
v -0.392442 1.937859 0.390439
v -0.499595 2.317146 0.497592
v -0.587532 2.779309 0.585530
v -0.652876 3.306587 0.650874
v -0.693115 3.878717 0.691112
v -0.706701 4.473712 0.704698
v -0.693115 5.068708 0.691112
v -0.652876 5.640838 0.650874
v -0.587532 6.168116 0.585530
v -0.499595 6.630279 0.497592
v -0.392442 7.009566 0.390439
v -0.270193 7.291402 0.268190
v -0.137544 7.464956 0.135542
v 0.000405 7.523558 -0.002408
v -0.161806 1.482469 0.105979
v -0.317784 1.656023 0.210200
v -0.461534 1.937859 0.306250
v -0.587532 2.317146 0.390440
v -0.690936 2.779309 0.459532
v -0.767772 3.306587 0.510872
v -0.815088 3.878717 0.542487
v -0.831064 4.473712 0.553162
v -0.815088 5.068708 0.542487
v -0.767772 5.640838 0.510872
v -0.690936 6.168116 0.459532
v -0.587532 6.630279 0.390440
v -0.461534 7.009566 0.306250
v -0.317784 7.291402 0.210200
v -0.161806 7.464956 0.105979
v -0.179835 1.482469 0.072250
v -0.353148 1.656023 0.144039
v -0.512874 1.937859 0.210200
v -0.652876 2.317146 0.268190
v -0.767772 2.779309 0.315782
v -0.853148 3.306587 0.351146
v -0.905722 3.878717 0.372922
v -0.923474 4.473712 0.380275
v -0.905722 5.068708 0.372922
v -0.853148 5.640838 0.351146
v -0.767772 6.168116 0.315782
v -0.652876 6.630279 0.268190
v -0.512874 7.009566 0.210200
v -0.353148 7.291402 0.144039
v -0.179835 7.464956 0.072250
v -0.190936 1.482469 0.035652
v -0.374925 1.656023 0.072250
v -0.544490 1.937859 0.105978
v -0.693115 2.317146 0.135542
v -0.815088 2.779309 0.159804
v -0.905722 3.306587 0.177832
v -0.961534 3.878717 0.188934
v -0.980379 4.473712 0.192682
v -0.961534 5.068708 0.188934
v -0.905722 5.640838 0.177832
v -0.815088 6.168116 0.159804
v -0.693115 6.630279 0.135542
v -0.544490 7.009566 0.105978
v -0.374925 7.291402 0.072250
v -0.190936 7.464956 0.035652
v -0.194685 1.482469 -0.002408
v -0.382278 1.656023 -0.002408
v -0.555165 1.937859 -0.002408
v -0.706701 2.317146 -0.002408
v -0.831064 2.779309 -0.002408
v -0.923474 3.306587 -0.002408
v -0.980380 3.878717 -0.002408
v -0.999594 4.473712 -0.002408
v -0.980380 5.068708 -0.002408
v -0.923474 5.640838 -0.002408
v -0.831064 6.168116 -0.002408
v -0.706701 6.630279 -0.002408
v -0.555165 7.009566 -0.002408
v -0.382278 7.291402 -0.002408
v -0.194685 7.464956 -0.002408
v -0.190936 1.482469 -0.040468
v -0.374925 1.656023 -0.077066
v -0.544489 1.937859 -0.110794
v -0.693115 2.317146 -0.140357
v -0.815087 2.779309 -0.164619
v -0.905722 3.306587 -0.182648
v -0.961534 3.878717 -0.193750
v -0.980379 4.473712 -0.197498
v -0.961534 5.068708 -0.193750
v -0.905722 5.640838 -0.182648
v -0.815087 6.168116 -0.164619
v -0.693115 6.630279 -0.140357
v -0.544489 7.009566 -0.110794
v -0.374925 7.291402 -0.077066
v -0.190936 7.464956 -0.040468
v -0.179835 1.482469 -0.077065
v -0.353148 1.656023 -0.148854
v -0.512874 1.937859 -0.215015
v -0.652876 2.317146 -0.273006
v -0.767772 2.779309 -0.320597
v -0.853148 3.306587 -0.355961
v -0.905722 3.878717 -0.377738
v -0.923473 4.473712 -0.385091
v -0.905722 5.068708 -0.377738
v -0.853148 5.640838 -0.355961
v -0.767772 6.168116 -0.320597
v -0.652876 6.630279 -0.273006
v -0.512874 7.009566 -0.215015
v -0.353148 7.291402 -0.148854
v -0.179835 7.464956 -0.077065
v -0.161806 1.482469 -0.110794
v -0.317784 1.656023 -0.215015
v -0.461534 1.937859 -0.311066
v -0.587532 2.317146 -0.395255
v -0.690936 2.779309 -0.464347
v -0.767772 3.306587 -0.515687
v -0.815087 3.878717 -0.547303
v -0.831063 4.473712 -0.557978
v -0.815087 5.068708 -0.547303
v -0.767772 5.640838 -0.515687
v -0.690936 6.168116 -0.464347
v -0.587532 6.630279 -0.395255
v -0.461534 7.009566 -0.311066
v -0.317784 7.291402 -0.215015
v -0.161806 7.464956 -0.110794
v -0.137544 1.482469 -0.140357
v -0.270193 1.656023 -0.273006
v -0.392442 1.937859 -0.395255
v -0.499595 2.317146 -0.502408
v -0.587532 2.779309 -0.590345
v -0.652876 3.306587 -0.655689
v -0.693114 3.878717 -0.695927
v -0.706701 4.473712 -0.709514
v -0.693114 5.068708 -0.695927
v -0.652876 5.640838 -0.655689
v -0.587532 6.168116 -0.590345
v -0.499595 6.630279 -0.502408
v -0.392442 7.009566 -0.395255
v -0.270193 7.291402 -0.273006
v -0.137544 7.464956 -0.140357
v -0.107981 1.482469 -0.164619
v -0.212202 1.656023 -0.320597
v -0.308253 1.937859 -0.464347
v -0.392442 2.317146 -0.590345
v -0.461534 2.779309 -0.693749
v -0.512874 3.306587 -0.770585
v -0.544489 3.878717 -0.817900
v -0.555164 4.473712 -0.833877
v -0.544489 5.068708 -0.817900
v -0.512874 5.640838 -0.770585
v -0.461534 6.168116 -0.693749
v -0.392442 6.630279 -0.590345
v -0.308253 7.009566 -0.464347
v -0.212202 7.291402 -0.320597
v -0.107981 7.464956 -0.164619
v -0.074253 1.482469 -0.182647
v -0.146041 1.656023 -0.355961
v -0.212202 1.937859 -0.515687
v -0.270193 2.317146 -0.655689
v -0.317784 2.779309 -0.770585
v -0.353148 3.306587 -0.855961
v -0.374925 3.878717 -0.908535
v -0.382277 4.473712 -0.926286
v -0.374925 5.068708 -0.908535
v -0.353148 5.640838 -0.855961
v -0.317784 6.168116 -0.770585
v -0.270193 6.630279 -0.655689
v -0.212202 7.009566 -0.515687
v -0.146041 7.291402 -0.355961
v -0.074253 7.464956 -0.182647
v -0.037655 1.482469 -0.193749
v -0.074253 1.656023 -0.377738
v -0.107981 1.937859 -0.547302
v -0.137544 2.317146 -0.695927
v -0.161806 2.779309 -0.817900
v -0.179835 3.306587 -0.908535
v -0.190936 3.878717 -0.964347
v -0.194684 4.473712 -0.983192
v -0.190936 5.068708 -0.964347
v -0.179835 5.640838 -0.908535
v -0.161806 6.168116 -0.817900
v -0.137544 6.630279 -0.695927
v -0.107981 7.009566 -0.547302
v -0.074253 7.291402 -0.377738
v -0.037655 7.464956 -0.193749
v 0.000405 1.482469 -0.197498
v 0.000405 1.656023 -0.385091
v 0.000405 2.317146 -0.709514
v 0.000405 3.306587 -0.926287
v 0.000405 5.640838 -0.926287
v 0.000405 6.630279 -0.709514
v 0.000405 7.009566 -0.557977
v 0.000405 7.291402 -0.385091
v 0.000405 7.464956 -0.197498
vn 0.0837 0.5211 -0.8494
vn 0.0975 -0.0985 -0.9903
vn 0.0667 0.7324 -0.6776
vn 0.0980 -0.0321 -0.9947
vn 0.0283 -0.9573 -0.2876
vn 0.0283 0.9573 -0.2876
vn 0.0980 0.0321 -0.9947
vn 0.0667 -0.7324 -0.6776
vn 0.0975 0.0985 -0.9903
vn 0.0837 -0.5211 -0.8494
vn 0.0966 0.1718 -0.9804
vn 0.0911 -0.3695 -0.9248
vn 0.0947 0.2587 -0.9613
vn 0.0947 -0.2587 -0.9613
vn 0.0911 0.3695 -0.9248
vn 0.0966 -0.1718 -0.9804
vn 0.2804 -0.2587 -0.9244
vn 0.2697 0.3695 -0.8892
vn 0.2860 -0.1718 -0.9427
vn 0.2478 0.5211 -0.8168
vn 0.2889 -0.0985 -0.9523
vn 0.1976 0.7324 -0.6516
vn 0.2901 -0.0321 -0.9564
vn 0.0839 -0.9573 -0.2765
vn 0.0839 0.9573 -0.2765
vn 0.2901 0.0321 -0.9564
vn 0.1976 -0.7324 -0.6516
vn 0.2889 0.0985 -0.9523
vn 0.2478 -0.5211 -0.8168
vn 0.2860 0.1718 -0.9427
vn 0.2697 -0.3695 -0.8892
vn 0.2804 0.2587 -0.9244
vn 0.4712 0.0321 -0.8815
vn 0.3210 -0.7324 -0.6005
vn 0.4691 0.0985 -0.8776
vn 0.4023 -0.5211 -0.7527
vn 0.4644 0.1718 -0.8688
vn 0.4380 -0.3695 -0.8195
vn 0.4554 0.2587 -0.8519
vn 0.4554 -0.2587 -0.8519
vn 0.4380 0.3695 -0.8195
vn 0.4644 -0.1718 -0.8688
vn 0.4023 0.5211 -0.7527
vn 0.4691 -0.0985 -0.8776
vn 0.3210 0.7324 -0.6005
vn 0.4712 -0.0321 -0.8815
vn 0.1362 -0.9573 -0.2548
vn 0.1362 0.9573 -0.2548
vn 0.5895 0.3695 -0.7183
vn 0.6250 -0.1718 -0.7615
vn 0.5415 0.5211 -0.6598
vn 0.6313 -0.0985 -0.7693
vn 0.4319 0.7324 -0.5263
vn 0.6341 -0.0321 -0.7726
vn 0.1833 -0.9573 -0.2234
vn 0.1833 0.9573 -0.2234
vn 0.6341 0.0321 -0.7726
vn 0.4319 -0.7324 -0.5263
vn 0.6313 0.0985 -0.7693
vn 0.5415 -0.5211 -0.6598
vn 0.6250 0.1718 -0.7615
vn 0.5895 -0.3695 -0.7183
vn 0.6128 0.2587 -0.7467
vn 0.6128 -0.2587 -0.7467
vn 0.7693 0.0985 -0.6313
vn 0.6598 -0.5211 -0.5415
vn 0.7615 0.1718 -0.6250
vn 0.7183 -0.3695 -0.5895
vn 0.7467 0.2587 -0.6128
vn 0.7467 -0.2587 -0.6128
vn 0.7183 0.3695 -0.5895
vn 0.7615 -0.1718 -0.6250
vn 0.6598 0.5211 -0.5415
vn 0.7693 -0.0985 -0.6313
vn 0.5263 0.7324 -0.4319
vn 0.7726 -0.0321 -0.6341
vn 0.2234 -0.9573 -0.1833
vn 0.2234 0.9573 -0.1833
vn 0.7726 0.0321 -0.6341
vn 0.5263 -0.7324 -0.4319
vn 0.7527 0.5211 -0.4023
vn 0.8776 -0.0985 -0.4691
vn 0.6005 0.7324 -0.3210
vn 0.8815 -0.0321 -0.4712
vn 0.2548 -0.9573 -0.1362
vn 0.2548 0.9573 -0.1362
vn 0.8815 0.0321 -0.4712
vn 0.6005 -0.7324 -0.3210
vn 0.8776 0.0985 -0.4691
vn 0.7527 -0.5211 -0.4023
vn 0.8688 0.1718 -0.4644
vn 0.8195 -0.3695 -0.4380
vn 0.8519 0.2587 -0.4554
vn 0.8519 -0.2587 -0.4554
vn 0.8195 0.3695 -0.4380
vn 0.8688 -0.1718 -0.4644
vn 0.8168 -0.5211 -0.2478
vn 0.9427 0.1718 -0.2860
vn 0.8892 -0.3695 -0.2697
vn 0.9244 0.2587 -0.2804
vn 0.9244 -0.2587 -0.2804
vn 0.8892 0.3695 -0.2697
vn 0.9427 -0.1718 -0.2860
vn 0.8168 0.5211 -0.2478
vn 0.9523 -0.0985 -0.2889
vn 0.6516 0.7324 -0.1976
vn 0.9564 -0.0321 -0.2901
vn 0.2765 -0.9573 -0.0839
vn 0.2765 0.9573 -0.0839
vn 0.9564 0.0321 -0.2901
vn 0.6516 -0.7324 -0.1976
vn 0.9523 0.0985 -0.2889
vn 0.9903 -0.0985 -0.0975
vn 0.6776 0.7324 -0.0667
vn 0.9947 -0.0321 -0.0980
vn 0.2876 -0.9573 -0.0283
vn 0.2876 0.9573 -0.0283
vn 0.9947 0.0321 -0.0980
vn 0.6776 -0.7324 -0.0667
vn 0.9903 0.0985 -0.0975
vn 0.8494 -0.5211 -0.0837
vn 0.9804 0.1718 -0.0966
vn 0.9248 -0.3695 -0.0911
vn 0.9613 0.2587 -0.0947
vn 0.9613 -0.2587 -0.0947
vn 0.9248 0.3695 -0.0911
vn 0.9804 -0.1718 -0.0966
vn 0.8494 0.5211 -0.0837
vn 0.9804 0.1718 0.0966
vn 0.9248 -0.3695 0.0911
vn 0.9613 0.2587 0.0947
vn 0.9613 -0.2587 0.0947
vn 0.9248 0.3695 0.0911
vn 0.9804 -0.1718 0.0966
vn 0.8494 0.5211 0.0837
vn 0.9903 -0.0985 0.0975
vn 0.6776 0.7324 0.0667
vn 0.9947 -0.0321 0.0980
vn 0.2876 -0.9573 0.0283
vn 0.2876 0.9573 0.0283
vn 0.9947 0.0321 0.0980
vn 0.6776 -0.7324 0.0667
vn 0.9903 0.0985 0.0975
vn 0.8494 -0.5211 0.0837
vn 0.6516 0.7324 0.1976
vn 0.9564 -0.0321 0.2901
vn 0.2765 -0.9573 0.0839
vn 0.2765 0.9573 0.0839
vn 0.9564 0.0321 0.2901
vn 0.6516 -0.7324 0.1976
vn 0.9523 0.0985 0.2889
vn 0.8168 -0.5211 0.2478
vn 0.9427 0.1718 0.2860
vn 0.8892 -0.3695 0.2697
vn 0.9244 0.2587 0.2804
vn 0.9244 -0.2587 0.2804
vn 0.8892 0.3695 0.2697
vn 0.9427 -0.1718 0.2860
vn 0.8168 0.5211 0.2478
vn 0.9523 -0.0985 0.2889
vn 0.8195 -0.3695 0.4380
vn 0.8519 0.2587 0.4554
vn 0.8519 -0.2587 0.4554
vn 0.8195 0.3695 0.4380
vn 0.8688 -0.1718 0.4644
vn 0.7527 0.5211 0.4023
vn 0.8776 -0.0985 0.4691
vn 0.6005 0.7324 0.3210
vn 0.8815 -0.0321 0.4712
vn 0.2548 -0.9573 0.1362
vn 0.2548 0.9573 0.1362
vn 0.8815 0.0321 0.4712
vn 0.6005 -0.7324 0.3210
vn 0.8776 0.0985 0.4691
vn 0.7527 -0.5211 0.4023
vn 0.8688 0.1718 0.4644
vn 0.7726 -0.0321 0.6341
vn 0.2234 -0.9573 0.1833
vn 0.2234 0.9573 0.1833
vn 0.7726 0.0321 0.6341
vn 0.5263 -0.7324 0.4319
vn 0.7693 0.0985 0.6313
vn 0.6598 -0.5211 0.5415
vn 0.7615 0.1718 0.6250
vn 0.7183 -0.3695 0.5895
vn 0.7467 0.2587 0.6128
vn 0.7467 -0.2587 0.6128
vn 0.7183 0.3695 0.5895
vn 0.7615 -0.1718 0.6250
vn 0.6598 0.5211 0.5415
vn 0.7693 -0.0985 0.6313
vn 0.5263 0.7324 0.4319
vn 0.6128 0.2587 0.7467
vn 0.6128 -0.2587 0.7467
vn 0.5895 0.3695 0.7183
vn 0.6250 -0.1718 0.7615
vn 0.5415 0.5211 0.6598
vn 0.6313 -0.0985 0.7693
vn 0.4319 0.7324 0.5263
vn 0.6341 -0.0321 0.7726
vn 0.1833 -0.9573 0.2234
vn 0.1833 0.9573 0.2234
vn 0.6341 0.0321 0.7726
vn 0.4319 -0.7324 0.5263
vn 0.6313 0.0985 0.7693
vn 0.5415 -0.5211 0.6598
vn 0.6250 0.1718 0.7615
vn 0.5895 -0.3695 0.7183
vn 0.1362 0.9573 0.2548
vn 0.4712 0.0321 0.8815
vn 0.3210 -0.7324 0.6005
vn 0.4691 0.0985 0.8776
vn 0.4023 -0.5211 0.7527
vn 0.4644 0.1718 0.8688
vn 0.4380 -0.3695 0.8195
vn 0.4554 0.2587 0.8519
vn 0.4554 -0.2587 0.8519
vn 0.4380 0.3695 0.8195
vn 0.4644 -0.1718 0.8688
vn 0.4023 0.5211 0.7527
vn 0.4691 -0.0985 0.8776
vn 0.3210 0.7324 0.6005
vn 0.4712 -0.0321 0.8815
vn 0.1362 -0.9573 0.2548
vn 0.2697 0.3695 0.8892
vn 0.2860 -0.1718 0.9427
vn 0.2478 0.5211 0.8168
vn 0.2889 -0.0985 0.9523
vn 0.1976 0.7324 0.6516
vn 0.2901 -0.0321 0.9564
vn 0.0839 -0.9573 0.2765
vn 0.0839 0.9573 0.2765
vn 0.2901 0.0321 0.9564
vn 0.1976 -0.7324 0.6516
vn 0.2889 0.0985 0.9523
vn 0.2478 -0.5211 0.8168
vn 0.2860 0.1718 0.9427
vn 0.2697 -0.3695 0.8892
vn 0.2804 0.2587 0.9244
vn 0.2804 -0.2587 0.9244
vn 0.0667 -0.7324 0.6776
vn 0.0975 0.0985 0.9903
vn 0.0837 -0.5211 0.8494
vn 0.0966 0.1718 0.9804
vn 0.0911 -0.3695 0.9248
vn 0.0947 0.2587 0.9613
vn 0.0947 -0.2587 0.9613
vn 0.0911 0.3695 0.9248
vn 0.0966 -0.1718 0.9804
vn 0.0837 0.5211 0.8494
vn 0.0975 -0.0985 0.9903
vn 0.0667 0.7324 0.6776
vn 0.0980 -0.0321 0.9947
vn 0.0283 -0.9573 0.2876
vn 0.0283 0.9573 0.2876
vn 0.0980 0.0321 0.9947
vn -0.0966 -0.1718 0.9804
vn -0.0837 0.5211 0.8494
vn -0.0975 -0.0985 0.9903
vn -0.0667 0.7324 0.6776
vn -0.0980 -0.0321 0.9947
vn -0.0283 -0.9573 0.2876
vn -0.0283 0.9573 0.2876
vn -0.0980 0.0321 0.9947
vn -0.0667 -0.7324 0.6776
vn -0.0975 0.0985 0.9903
vn -0.0837 -0.5211 0.8494
vn -0.0966 0.1718 0.9804
vn -0.0911 -0.3695 0.9248
vn -0.0947 0.2587 0.9613
vn -0.0947 -0.2587 0.9613
vn -0.0911 0.3695 0.9248
vn -0.2889 0.0985 0.9523
vn -0.2478 -0.5211 0.8168
vn -0.2860 0.1718 0.9427
vn -0.2697 -0.3695 0.8892
vn -0.2804 0.2587 0.9244
vn -0.2804 -0.2587 0.9244
vn -0.2697 0.3695 0.8892
vn -0.2860 -0.1718 0.9427
vn -0.2478 0.5211 0.8168
vn -0.2889 -0.0985 0.9523
vn -0.1976 0.7324 0.6516
vn -0.2901 -0.0321 0.9564
vn -0.0839 -0.9573 0.2765
vn -0.0839 0.9573 0.2765
vn -0.2901 0.0321 0.9564
vn -0.1976 -0.7324 0.6516
vn -0.4023 0.5211 0.7527
vn -0.4691 -0.0985 0.8776
vn -0.3210 0.7324 0.6005
vn -0.4712 -0.0321 0.8815
vn -0.1362 -0.9573 0.2548
vn -0.1362 0.9573 0.2548
vn -0.4712 0.0321 0.8815
vn -0.3210 -0.7324 0.6005
vn -0.4691 0.0985 0.8776
vn -0.4023 -0.5211 0.7527
vn -0.4644 0.1718 0.8688
vn -0.4380 -0.3695 0.8195
vn -0.4554 0.2587 0.8519
vn -0.4554 -0.2587 0.8519
vn -0.4380 0.3695 0.8195
vn -0.4644 -0.1718 0.8688
vn -0.5415 -0.5211 0.6598
vn -0.6250 0.1718 0.7615
vn -0.5895 -0.3695 0.7183
vn -0.6128 0.2587 0.7467
vn -0.6128 -0.2587 0.7467
vn -0.5895 0.3695 0.7183
vn -0.6250 -0.1718 0.7615
vn -0.5415 0.5211 0.6598
vn -0.6313 -0.0985 0.7693
vn -0.4319 0.7324 0.5263
vn -0.6341 -0.0321 0.7726
vn -0.1833 -0.9573 0.2234
vn -0.1833 0.9573 0.2234
vn -0.6341 0.0321 0.7726
vn -0.4319 -0.7324 0.5263
vn -0.6313 0.0985 0.7693
vn -0.7693 -0.0985 0.6313
vn -0.5263 0.7324 0.4319
vn -0.7726 -0.0321 0.6341
vn -0.2234 -0.9573 0.1833
vn -0.2234 0.9573 0.1833
vn -0.7726 0.0321 0.6341
vn -0.5263 -0.7324 0.4319
vn -0.7693 0.0985 0.6313
vn -0.6598 -0.5211 0.5415
vn -0.7615 0.1718 0.6250
vn -0.7183 -0.3695 0.5895
vn -0.7467 0.2587 0.6128
vn -0.7467 -0.2587 0.6128
vn -0.7183 0.3695 0.5895
vn -0.7615 -0.1718 0.6250
vn -0.6598 0.5211 0.5415
vn -0.8688 0.1718 0.4644
vn -0.8195 -0.3695 0.4380
vn -0.8519 0.2587 0.4554
vn -0.8519 -0.2587 0.4554
vn -0.8195 0.3695 0.4380
vn -0.8688 -0.1718 0.4644
vn -0.7527 0.5211 0.4023
vn -0.8776 -0.0985 0.4691
vn -0.6005 0.7324 0.3210
vn -0.8815 -0.0321 0.4712
vn -0.2548 -0.9573 0.1362
vn -0.2548 0.9573 0.1362
vn -0.8815 0.0321 0.4712
vn -0.6005 -0.7324 0.3210
vn -0.8776 0.0985 0.4691
vn -0.7527 -0.5211 0.4023
vn -0.6516 0.7324 0.1976
vn -0.9564 -0.0321 0.2901
vn -0.2765 -0.9573 0.0839
vn -0.2765 0.9573 0.0839
vn -0.9564 0.0321 0.2901
vn -0.6516 -0.7324 0.1976
vn -0.9523 0.0985 0.2889
vn -0.8168 -0.5211 0.2478
vn -0.9427 0.1718 0.2860
vn -0.8892 -0.3695 0.2697
vn -0.9244 0.2587 0.2804
vn -0.9244 -0.2587 0.2804
vn -0.8892 0.3695 0.2697
vn -0.9427 -0.1718 0.2860
vn -0.8168 0.5211 0.2478
vn -0.9523 -0.0985 0.2889
vn -0.9613 0.2587 0.0947
vn -0.9613 -0.2587 0.0947
vn -0.9248 0.3695 0.0911
vn -0.9804 -0.1718 0.0966
vn -0.8494 0.5211 0.0837
vn -0.9903 -0.0985 0.0975
vn -0.6776 0.7324 0.0667
vn -0.9947 -0.0321 0.0980
vn -0.2876 -0.9573 0.0283
vn -0.2876 0.9573 0.0283
vn -0.9947 0.0321 0.0980
vn -0.6776 -0.7324 0.0667
vn -0.9903 0.0985 0.0975
vn -0.8494 -0.5211 0.0837
vn -0.9804 0.1718 0.0966
vn -0.9248 -0.3695 0.0911
vn -0.2876 -0.9573 -0.0283
vn -0.2876 0.9573 -0.0283
vn -0.9947 0.0321 -0.0980
vn -0.6776 -0.7324 -0.0667
vn -0.9903 0.0985 -0.0975
vn -0.8494 -0.5211 -0.0837
vn -0.9804 0.1718 -0.0966
vn -0.9248 -0.3695 -0.0911
vn -0.9613 0.2587 -0.0947
vn -0.9613 -0.2587 -0.0947
vn -0.9248 0.3695 -0.0911
vn -0.9804 -0.1718 -0.0966
vn -0.8494 0.5211 -0.0837
vn -0.9903 -0.0985 -0.0975
vn -0.6776 0.7324 -0.0667
vn -0.9947 -0.0321 -0.0980
vn -0.9244 -0.2587 -0.2804
vn -0.8892 0.3695 -0.2697
vn -0.9427 -0.1718 -0.2860
vn -0.8168 0.5211 -0.2478
vn -0.9523 -0.0985 -0.2889
vn -0.6516 0.7324 -0.1976
vn -0.9564 -0.0321 -0.2901
vn -0.2765 -0.9573 -0.0839
vn -0.2765 0.9573 -0.0839
vn -0.9564 0.0321 -0.2901
vn -0.6516 -0.7324 -0.1976
vn -0.9523 0.0985 -0.2889
vn -0.8168 -0.5211 -0.2478
vn -0.9427 0.1718 -0.2860
vn -0.8892 -0.3695 -0.2697
vn -0.9244 0.2587 -0.2804
vn -0.8815 0.0321 -0.4712
vn -0.6005 -0.7324 -0.3210
vn -0.8776 0.0985 -0.4691
vn -0.7527 -0.5211 -0.4023
vn -0.8688 0.1718 -0.4644
vn -0.8195 -0.3695 -0.4380
vn -0.8519 0.2587 -0.4554
vn -0.8519 -0.2587 -0.4554
vn -0.8195 0.3695 -0.4380
vn -0.8688 -0.1718 -0.4644
vn -0.7527 0.5211 -0.4023
vn -0.8776 -0.0985 -0.4691
vn -0.6005 0.7324 -0.3210
vn -0.8815 -0.0321 -0.4712
vn -0.2548 -0.9573 -0.1362
vn -0.2548 0.9573 -0.1362
vn -0.7183 0.3695 -0.5895
vn -0.7615 -0.1718 -0.6250
vn -0.6598 0.5211 -0.5415
vn -0.7693 -0.0985 -0.6313
vn -0.5263 0.7324 -0.4319
vn -0.7726 -0.0321 -0.6341
vn -0.2234 -0.9573 -0.1833
vn -0.2234 0.9573 -0.1833
vn -0.7726 0.0321 -0.6341
vn -0.5263 -0.7324 -0.4319
vn -0.7693 0.0985 -0.6313
vn -0.6598 -0.5211 -0.5415
vn -0.7615 0.1718 -0.6250
vn -0.7183 -0.3695 -0.5895
vn -0.7467 0.2587 -0.6128
vn -0.7467 -0.2587 -0.6128
vn -0.4319 -0.7324 -0.5263
vn -0.6313 0.0985 -0.7693
vn -0.5415 -0.5211 -0.6598
vn -0.6250 0.1718 -0.7615
vn -0.5895 -0.3695 -0.7183
vn -0.6128 0.2587 -0.7467
vn -0.6128 -0.2587 -0.7467
vn -0.5895 0.3695 -0.7183
vn -0.6250 -0.1718 -0.7615
vn -0.5415 0.5211 -0.6598
vn -0.6313 -0.0985 -0.7693
vn -0.4319 0.7324 -0.5263
vn -0.6341 -0.0321 -0.7726
vn -0.1833 -0.9573 -0.2234
vn -0.1833 0.9573 -0.2234
vn -0.6341 0.0321 -0.7726
vn -0.4644 -0.1718 -0.8688
vn -0.4023 0.5211 -0.7527
vn -0.4691 -0.0985 -0.8776
vn -0.3210 0.7324 -0.6005
vn -0.4712 -0.0321 -0.8815
vn -0.1362 -0.9573 -0.2548
vn -0.1362 0.9573 -0.2548
vn -0.4712 0.0321 -0.8815
vn -0.3210 -0.7324 -0.6005
vn -0.4691 0.0985 -0.8776
vn -0.4023 -0.5211 -0.7527
vn -0.4644 0.1718 -0.8688
vn -0.4380 -0.3695 -0.8195
vn -0.4554 0.2587 -0.8519
vn -0.4554 -0.2587 -0.8519
vn -0.4380 0.3695 -0.8195
vn -0.2889 0.0985 -0.9523
vn -0.2478 -0.5211 -0.8168
vn -0.2860 0.1718 -0.9427
vn -0.2697 -0.3695 -0.8892
vn -0.2804 0.2587 -0.9244
vn -0.2804 -0.2587 -0.9244
vn -0.2697 0.3695 -0.8892
vn -0.2860 -0.1718 -0.9427
vn -0.2478 0.5211 -0.8168
vn -0.2889 -0.0985 -0.9523
vn -0.1976 0.7324 -0.6516
vn -0.2901 -0.0321 -0.9564
vn -0.0839 -0.9573 -0.2765
vn -0.0839 0.9573 -0.2765
vn -0.2901 0.0321 -0.9564
vn -0.1976 -0.7324 -0.6516
vn -0.0837 0.5211 -0.8494
vn -0.0975 -0.0985 -0.9903
vn -0.0667 0.7324 -0.6776
vn -0.0980 -0.0321 -0.9947
vn -0.0283 -0.9573 -0.2876
vn -0.0283 0.9573 -0.2876
vn -0.0980 0.0321 -0.9947
vn -0.0667 -0.7324 -0.6776
vn -0.0975 0.0985 -0.9903
vn -0.0837 -0.5211 -0.8494
vn -0.0966 0.1718 -0.9804
vn -0.0911 -0.3695 -0.9248
vn -0.0947 0.2587 -0.9613
vn -0.0947 -0.2587 -0.9613
vn -0.0911 0.3695 -0.9248
vn -0.0966 -0.1718 -0.9804
vt 0.750000 0.812500
vt 0.750000 0.687500
vt 0.750000 0.562500
vt 0.750000 0.500000
vt 0.750000 0.437500
vt 0.750000 0.312500
vt 0.718750 0.937500
vt 0.718750 0.875000
vt 0.718750 0.812500
vt 0.718750 0.750000
vt 0.718750 0.687500
vt 0.718750 0.625000
vt 0.718750 0.562500
vt 0.718750 0.500000
vt 0.718750 0.437500
vt 0.718750 0.375000
vt 0.718750 0.312500
vt 0.718750 0.250000
vt 0.718750 0.187500
vt 0.718750 0.125000
vt 0.718750 0.062500
vt 0.687500 0.937500
vt 0.687500 0.875000
vt 0.687500 0.812500
vt 0.687500 0.750000
vt 0.687500 0.687500
vt 0.687500 0.625000
vt 0.687500 0.562500
vt 0.687500 0.500000
vt 0.687500 0.437500
vt 0.687500 0.375000
vt 0.687500 0.312500
vt 0.687500 0.250000
vt 0.687500 0.187500
vt 0.687500 0.125000
vt 0.687500 0.062500
vt 0.656250 0.937500
vt 0.656250 0.875000
vt 0.656250 0.812500
vt 0.656250 0.750000
vt 0.656250 0.687500
vt 0.656250 0.625000
vt 0.656250 0.562500
vt 0.656250 0.500000
vt 0.656250 0.437500
vt 0.656250 0.375000
vt 0.656250 0.312500
vt 0.656250 0.250000
vt 0.656250 0.187500
vt 0.656250 0.125000
vt 0.656250 0.062500
vt 0.625000 0.937500
vt 0.625000 0.875000
vt 0.625000 0.812500
vt 0.625000 0.750000
vt 0.625000 0.687500
vt 0.625000 0.625000
vt 0.625000 0.562500
vt 0.625000 0.500000
vt 0.625000 0.437500
vt 0.625000 0.375000
vt 0.625000 0.312500
vt 0.625000 0.250000
vt 0.625000 0.187500
vt 0.625000 0.125000
vt 0.625000 0.062500
vt 0.593750 0.937500
vt 0.593750 0.875000
vt 0.593750 0.812500
vt 0.593750 0.750000
vt 0.593750 0.687500
vt 0.593750 0.625000
vt 0.593750 0.562500
vt 0.593750 0.500000
vt 0.593750 0.437500
vt 0.593750 0.375000
vt 0.593750 0.312500
vt 0.593750 0.250000
vt 0.593750 0.187500
vt 0.593750 0.125000
vt 0.593750 0.062500
vt 0.734375 1.000000
vt 0.703125 1.000000
vt 0.671875 1.000000
vt 0.640625 1.000000
vt 0.609375 1.000000
vt 0.578125 1.000000
vt 0.546875 1.000000
vt 0.515625 1.000000
vt 0.484375 1.000000
vt 0.453125 1.000000
vt 0.421875 1.000000
vt 0.390625 1.000000
vt 0.359375 1.000000
vt 0.328125 1.000000
vt 0.296875 1.000000
vt 0.265625 1.000000
vt 0.234375 1.000000
vt 0.203125 1.000000
vt 0.171875 1.000000
vt 0.140625 1.000000
vt 0.109375 1.000000
vt 0.078125 1.000000
vt 0.046875 1.000000
vt 0.015625 1.000000
vt 0.984375 1.000000
vt 0.953125 1.000000
vt 0.921875 1.000000
vt 0.890625 1.000000
vt 0.859375 1.000000
vt 0.828125 1.000000
vt 0.796875 1.000000
vt 0.765625 1.000000
vt 0.562500 0.937500
vt 0.562500 0.875000
vt 0.562500 0.812500
vt 0.562500 0.750000
vt 0.562500 0.687500
vt 0.562500 0.625000
vt 0.562500 0.562500
vt 0.562500 0.500000
vt 0.562500 0.437500
vt 0.562500 0.375000
vt 0.562500 0.312500
vt 0.562500 0.250000
vt 0.562500 0.187500
vt 0.562500 0.125000
vt 0.562500 0.062500
vt 0.531250 0.937500
vt 0.531250 0.875000
vt 0.531250 0.812500
vt 0.531250 0.750000
vt 0.531250 0.687500
vt 0.531250 0.625000
vt 0.531250 0.562500
vt 0.531250 0.500000
vt 0.531250 0.437500
vt 0.531250 0.375000
vt 0.531250 0.312500
vt 0.531250 0.250000
vt 0.531250 0.187500
vt 0.531250 0.125000
vt 0.531250 0.062500
vt 0.500000 0.937500
vt 0.500000 0.875000
vt 0.500000 0.812500
vt 0.500000 0.750000
vt 0.500000 0.687500
vt 0.500000 0.625000
vt 0.500000 0.562500
vt 0.500000 0.500000
vt 0.500000 0.437500
vt 0.500000 0.375000
vt 0.500000 0.312500
vt 0.500000 0.250000
vt 0.500000 0.187500
vt 0.500000 0.125000
vt 0.500000 0.062500
vt 0.468750 0.937500
vt 0.468750 0.875000
vt 0.468750 0.812500
vt 0.468750 0.750000
vt 0.468750 0.687500
vt 0.468750 0.625000
vt 0.468750 0.562500
vt 0.468750 0.500000
vt 0.468750 0.437500
vt 0.468750 0.375000
vt 0.468750 0.312500
vt 0.468750 0.250000
vt 0.468750 0.187500
vt 0.468750 0.125000
vt 0.468750 0.062500
vt 0.437500 0.937500
vt 0.437500 0.875000
vt 0.437500 0.812500
vt 0.437500 0.750000
vt 0.437500 0.687500
vt 0.437500 0.625000
vt 0.437500 0.562500
vt 0.437500 0.500000
vt 0.437500 0.437500
vt 0.437500 0.375000
vt 0.437500 0.312500
vt 0.437500 0.250000
vt 0.437500 0.187500
vt 0.437500 0.125000
vt 0.437500 0.062500
vt 0.406250 0.937500
vt 0.406250 0.875000
vt 0.406250 0.812500
vt 0.406250 0.750000
vt 0.406250 0.687500
vt 0.406250 0.625000
vt 0.406250 0.562500
vt 0.406250 0.500000
vt 0.406250 0.437500
vt 0.406250 0.375000
vt 0.406250 0.312500
vt 0.406250 0.250000
vt 0.406250 0.187500
vt 0.406250 0.125000
vt 0.406250 0.062500
vt 0.375000 0.937500
vt 0.375000 0.875000
vt 0.375000 0.812500
vt 0.375000 0.750000
vt 0.375000 0.687500
vt 0.375000 0.625000
vt 0.375000 0.562500
vt 0.375000 0.500000
vt 0.375000 0.437500
vt 0.375000 0.375000
vt 0.375000 0.312500
vt 0.375000 0.250000
vt 0.375000 0.187500
vt 0.375000 0.125000
vt 0.375000 0.062500
vt 0.343750 0.937500
vt 0.343750 0.875000
vt 0.343750 0.812500
vt 0.343750 0.750000
vt 0.343750 0.687500
vt 0.343750 0.625000
vt 0.343750 0.562500
vt 0.343750 0.500000
vt 0.343750 0.437500
vt 0.343750 0.375000
vt 0.343750 0.312500
vt 0.343750 0.250000
vt 0.343750 0.187500
vt 0.343750 0.125000
vt 0.343750 0.062500
vt 0.312500 0.937500
vt 0.312500 0.875000
vt 0.312500 0.812500
vt 0.312500 0.750000
vt 0.312500 0.687500
vt 0.312500 0.625000
vt 0.312500 0.562500
vt 0.312500 0.500000
vt 0.312500 0.437500
vt 0.312500 0.375000
vt 0.312500 0.312500
vt 0.312500 0.250000
vt 0.312500 0.187500
vt 0.312500 0.125000
vt 0.312500 0.062500
vt 0.281250 0.937500
vt 0.281250 0.875000
vt 0.281250 0.812500
vt 0.281250 0.750000
vt 0.281250 0.687500
vt 0.281250 0.625000
vt 0.281250 0.562500
vt 0.281250 0.500000
vt 0.281250 0.437500
vt 0.281250 0.375000
vt 0.281250 0.312500
vt 0.281250 0.250000
vt 0.281250 0.187500
vt 0.281250 0.125000
vt 0.281250 0.062500
vt 0.250000 0.937500
vt 0.250000 0.875000
vt 0.250000 0.812500
vt 0.250000 0.750000
vt 0.250000 0.687500
vt 0.250000 0.625000
vt 0.250000 0.562500
vt 0.250000 0.500000
vt 0.250000 0.437500
vt 0.250000 0.375000
vt 0.250000 0.312500
vt 0.250000 0.250000
vt 0.250000 0.187500
vt 0.250000 0.125000
vt 0.250000 0.062500
vt 0.218750 0.937500
vt 0.218750 0.875000
vt 0.218750 0.812500
vt 0.218750 0.750000
vt 0.218750 0.687500
vt 0.218750 0.625000
vt 0.218750 0.562500
vt 0.218750 0.500000
vt 0.218750 0.437500
vt 0.218750 0.375000
vt 0.218750 0.312500
vt 0.218750 0.250000
vt 0.218750 0.187500
vt 0.218750 0.125000
vt 0.218750 0.062500
vt 0.187500 0.937500
vt 0.187500 0.875000
vt 0.187500 0.812500
vt 0.187500 0.750000
vt 0.187500 0.687500
vt 0.187500 0.625000
vt 0.187500 0.562500
vt 0.187500 0.500000
vt 0.187500 0.437500
vt 0.187500 0.375000
vt 0.187500 0.312500
vt 0.187500 0.250000
vt 0.187500 0.187500
vt 0.187500 0.125000
vt 0.187500 0.062500
vt 0.156250 0.937500
vt 0.156250 0.875000
vt 0.156250 0.812500
vt 0.156250 0.750000
vt 0.156250 0.687500
vt 0.156250 0.625000
vt 0.156250 0.562500
vt 0.156250 0.500000
vt 0.156250 0.437500
vt 0.156250 0.375000
vt 0.156250 0.312500
vt 0.156250 0.250000
vt 0.156250 0.187500
vt 0.156250 0.125000
vt 0.156250 0.062500
vt 0.125000 0.937500
vt 0.125000 0.875000
vt 0.125000 0.812500
vt 0.125000 0.750000
vt 0.125000 0.687500
vt 0.125000 0.625000
vt 0.125000 0.562500
vt 0.125000 0.500000
vt 0.125000 0.437500
vt 0.125000 0.375000
vt 0.125000 0.312500
vt 0.125000 0.250000
vt 0.125000 0.187500
vt 0.125000 0.125000
vt 0.125000 0.062500
vt 0.734375 0.000000
vt 0.703125 0.000000
vt 0.671875 0.000000
vt 0.640625 0.000000
vt 0.609375 0.000000
vt 0.578125 0.000000
vt 0.546875 0.000000
vt 0.515625 0.000000
vt 0.484375 0.000000
vt 0.453125 0.000000
vt 0.421875 0.000000
vt 0.390625 0.000000
vt 0.359375 0.000000
vt 0.328125 0.000000
vt 0.296875 0.000000
vt 0.265625 0.000000
vt 0.234375 0.000000
vt 0.203125 0.000000
vt 0.171875 0.000000
vt 0.140625 0.000000
vt 0.109375 0.000000
vt 0.078125 0.000000
vt 0.046875 0.000000
vt 0.015625 0.000000
vt 0.984375 0.000000
vt 0.953125 0.000000
vt 0.921875 0.000000
vt 0.890625 0.000000
vt 0.859375 0.000000
vt 0.828125 0.000000
vt 0.796875 0.000000
vt 0.765625 0.000000
vt 0.093750 0.937500
vt 0.093750 0.875000
vt 0.093750 0.812500
vt 0.093750 0.750000
vt 0.093750 0.687500
vt 0.093750 0.625000
vt 0.093750 0.562500
vt 0.093750 0.500000
vt 0.093750 0.437500
vt 0.093750 0.375000
vt 0.093750 0.312500
vt 0.093750 0.250000
vt 0.093750 0.187500
vt 0.093750 0.125000
vt 0.093750 0.062500
vt 0.062500 0.937500
vt 0.062500 0.875000
vt 0.062500 0.812500
vt 0.062500 0.750000
vt 0.062500 0.687500
vt 0.062500 0.625000
vt 0.062500 0.562500
vt 0.062500 0.500000
vt 0.062500 0.437500
vt 0.062500 0.375000
vt 0.062500 0.312500
vt 0.062500 0.250000
vt 0.062500 0.187500
vt 0.062500 0.125000
vt 0.062500 0.062500
vt 0.031250 0.937500
vt 0.031250 0.875000
vt 0.031250 0.812500
vt 0.031250 0.750000
vt 0.031250 0.687500
vt 0.031250 0.625000
vt 0.031250 0.562500
vt 0.031250 0.500000
vt 0.031250 0.437500
vt 0.031250 0.375000
vt 0.031250 0.312500
vt 0.031250 0.250000
vt 0.031250 0.187500
vt 0.031250 0.125000
vt 0.031250 0.062500
vt 0.000000 0.937500
vt 1.000000 0.937500
vt 0.000000 0.875000
vt 1.000000 0.875000
vt 0.000000 0.812500
vt 1.000000 0.812500
vt 0.000000 0.750000
vt 1.000000 0.750000
vt 0.000000 0.687500
vt 1.000000 0.687500
vt 0.000000 0.625000
vt 1.000000 0.625000
vt 0.000000 0.562500
vt 1.000000 0.562500
vt 0.000000 0.500000
vt 1.000000 0.500000
vt 0.000000 0.437500
vt 1.000000 0.437500
vt 0.000000 0.375000
vt 1.000000 0.375000
vt 0.000000 0.312500
vt 1.000000 0.312500
vt 0.000000 0.250000
vt 1.000000 0.250000
vt 0.000000 0.187500
vt 1.000000 0.187500
vt 0.000000 0.125000
vt 1.000000 0.125000
vt 1.000000 0.062500
vt 0.000000 0.062500
vt 0.968750 0.937500
vt 0.968750 0.875000
vt 0.968750 0.812500
vt 0.968750 0.750000
vt 0.968750 0.687500
vt 0.968750 0.625000
vt 0.968750 0.562500
vt 0.968750 0.500000
vt 0.968750 0.437500
vt 0.968750 0.375000
vt 0.968750 0.312500
vt 0.968750 0.250000
vt 0.968750 0.187500
vt 0.968750 0.125000
vt 0.968750 0.062500
vt 0.937500 0.937500
vt 0.937500 0.875000
vt 0.937500 0.812500
vt 0.937500 0.750000
vt 0.937500 0.687500
vt 0.937500 0.625000
vt 0.937500 0.562500
vt 0.937500 0.500000
vt 0.937500 0.437500
vt 0.937500 0.375000
vt 0.937500 0.312500
vt 0.937500 0.250000
vt 0.937500 0.187500
vt 0.937500 0.125000
vt 0.937500 0.062500
vt 0.906250 0.937500
vt 0.906250 0.875000
vt 0.906250 0.812500
vt 0.906250 0.750000
vt 0.906250 0.687500
vt 0.906250 0.625000
vt 0.906250 0.562500
vt 0.906250 0.500000
vt 0.906250 0.437500
vt 0.906250 0.375000
vt 0.906250 0.312500
vt 0.906250 0.250000
vt 0.906250 0.187500
vt 0.906250 0.125000
vt 0.906250 0.062500
vt 0.875000 0.937500
vt 0.875000 0.875000
vt 0.875000 0.812500
vt 0.875000 0.750000
vt 0.875000 0.687500
vt 0.875000 0.625000
vt 0.875000 0.562500
vt 0.875000 0.500000
vt 0.875000 0.437500
vt 0.875000 0.375000
vt 0.875000 0.312500
vt 0.875000 0.250000
vt 0.875000 0.187500
vt 0.875000 0.125000
vt 0.875000 0.062500
vt 0.843750 0.937500
vt 0.843750 0.875000
vt 0.843750 0.812500
vt 0.843750 0.750000
vt 0.843750 0.687500
vt 0.843750 0.625000
vt 0.843750 0.562500
vt 0.843750 0.500000
vt 0.843750 0.437500
vt 0.843750 0.375000
vt 0.843750 0.312500
vt 0.843750 0.250000
vt 0.843750 0.187500
vt 0.843750 0.125000
vt 0.843750 0.062500
vt 0.812500 0.937500
vt 0.812500 0.875000
vt 0.812500 0.812500
vt 0.812500 0.750000
vt 0.812500 0.687500
vt 0.812500 0.625000
vt 0.812500 0.562500
vt 0.812500 0.500000
vt 0.812500 0.437500
vt 0.812500 0.375000
vt 0.812500 0.312500
vt 0.812500 0.250000
vt 0.812500 0.187500
vt 0.812500 0.125000
vt 0.812500 0.062500
vt 0.781250 0.937500
vt 0.781250 0.875000
vt 0.781250 0.812500
vt 0.781250 0.750000
vt 0.781250 0.687500
vt 0.781250 0.625000
vt 0.781250 0.562500
vt 0.781250 0.500000
vt 0.781250 0.437500
vt 0.781250 0.375000
vt 0.781250 0.312500
vt 0.781250 0.250000
vt 0.781250 0.187500
vt 0.781250 0.125000
vt 0.781250 0.062500
vt 0.750000 0.937500
vt 0.750000 0.875000
vt 0.750000 0.750000
vt 0.750000 0.625000
vt 0.750000 0.375000
vt 0.750000 0.250000
vt 0.750000 0.187500
vt 0.750000 0.125000
vt 0.750000 0.062500
s 0
f 488/571/7 489/572/7 28/34/7
f 11/17/8 21/27/8 20/26/8
f 489/572/9 490/573/9 29/35/9
f 11/17/10 12/18/10 22/28/10
f 482/565/11 15/21/11 90/96/11
f 316/353/12 29/35/12 490/573/12
f 12/18/13 13/19/13 23/29/13
f 483/566/14 16/22/14 15/21/14
f 13/19/15 486/569/15 24/30/15
f 9/15/16 17/23/16 16/22/16
f 486/569/17 14/20/17 25/31/17
f 484/567/18 18/24/18 17/23/18
f 14/20/19 487/570/19 26/32/19
f 10/16/20 19/25/20 18/24/20
f 487/570/21 488/571/21 27/33/21
f 485/568/22 20/26/22 19/25/22
f 18/24/23 19/25/23 34/40/23
f 27/33/24 42/48/24 41/47/24
f 19/25/25 20/26/25 35/41/25
f 28/34/26 43/49/26 42/48/26
f 21/27/27 36/42/27 35/41/27
f 28/34/28 29/35/28 44/50/28
f 21/27/29 22/28/29 37/43/29
f 15/21/30 30/36/30 90/97/30
f 316/354/31 44/50/31 29/35/31
f 22/28/32 23/29/32 38/44/32
f 15/21/33 16/22/33 31/37/33
f 23/29/34 24/30/34 39/45/34
f 16/22/35 17/23/35 32/38/35
f 24/30/36 25/31/36 40/46/36
f 17/23/37 18/24/37 33/39/37
f 25/31/38 26/32/38 41/47/38
f 38/44/39 53/59/39 52/58/39
f 30/36/40 31/37/40 46/52/40
f 38/44/41 39/45/41 54/60/41
f 31/37/42 32/38/42 47/53/42
f 40/46/43 55/61/43 54/60/43
f 32/38/44 33/39/44 48/54/44
f 41/47/45 56/62/45 55/61/45
f 33/39/46 34/40/46 49/55/46
f 42/48/47 57/63/47 56/62/47
f 34/40/48 35/41/48 50/56/48
f 42/48/49 43/49/49 58/64/49
f 35/41/50 36/42/50 51/57/50
f 43/49/51 44/50/51 59/65/51
f 36/42/52 37/43/52 52/58/52
f 30/36/53 45/51/53 90/98/53
f 316/355/54 59/65/54 44/50/54
f 56/62/55 57/63/55 72/78/55
f 49/55/56 50/56/56 65/71/56
f 57/63/57 58/64/57 73/79/57
f 51/57/58 66/72/58 65/71/58
f 58/64/59 59/65/59 74/80/59
f 52/58/60 67/73/60 66/72/60
f 45/51/61 60/66/61 90/99/61
f 316/356/62 74/80/62 59/65/62
f 52/58/63 53/59/63 68/74/63
f 45/51/64 46/52/64 61/67/64
f 53/59/65 54/60/65 69/75/65
f 46/52/66 47/53/66 62/68/66
f 55/61/67 70/76/67 69/75/67
f 47/53/68 48/54/68 63/69/68
f 55/61/69 56/62/69 71/77/69
f 48/54/70 49/55/70 64/70/70
f 68/74/71 69/75/71 84/90/71
f 61/67/72 62/68/72 77/83/72
f 70/76/73 85/91/73 84/90/73
f 62/68/74 63/69/74 78/84/74
f 70/76/75 71/77/75 86/92/75
f 64/70/76 79/85/76 78/84/76
f 71/77/77 72/78/77 87/93/77
f 64/70/78 65/71/78 80/86/78
f 73/79/79 88/94/79 87/93/79
f 66/72/80 81/87/80 80/86/80
f 73/79/81 74/80/81 89/95/81
f 67/73/82 82/88/82 81/87/82
f 60/66/83 75/81/83 90/100/83
f 316/357/84 89/95/84 74/80/84
f 67/73/85 68/74/85 83/89/85
f 60/66/86 61/67/86 76/82/86
f 87/93/87 88/94/87 104/141/87
f 81/87/88 97/134/88 96/133/88
f 89/95/89 105/142/89 104/141/89
f 82/88/90 98/135/90 97/134/90
f 75/81/91 91/128/91 90/101/91
f 316/358/92 105/142/92 89/95/92
f 82/88/93 83/89/93 99/136/93
f 75/81/94 76/82/94 92/129/94
f 83/89/95 84/90/95 100/137/95
f 76/82/96 77/83/96 93/130/96
f 85/91/97 101/138/97 100/137/97
f 77/83/98 78/84/98 94/131/98
f 85/91/99 86/92/99 102/139/99
f 79/85/100 95/132/100 94/131/100
f 86/92/101 87/93/101 103/140/101
f 79/85/102 80/86/102 96/133/102
f 92/129/103 93/130/103 108/145/103
f 101/138/104 116/153/104 115/152/104
f 93/130/105 94/131/105 109/146/105
f 101/138/106 102/139/106 117/154/106
f 95/132/107 110/147/107 109/146/107
f 103/140/108 118/155/108 117/154/108
f 95/132/109 96/133/109 111/148/109
f 104/141/110 119/156/110 118/155/110
f 97/134/111 112/149/111 111/148/111
f 104/141/112 105/142/112 120/157/112
f 98/135/113 113/150/113 112/149/113
f 91/128/114 106/143/114 90/102/114
f 316/359/115 120/157/115 105/142/115
f 98/135/116 99/136/116 114/151/116
f 92/129/117 107/144/117 106/143/117
f 99/136/118 100/137/118 115/152/118
f 112/149/119 127/164/119 126/163/119
f 119/156/120 120/157/120 135/172/120
f 113/150/121 128/165/121 127/164/121
f 106/143/122 121/158/122 90/103/122
f 316/360/123 135/172/123 120/157/123
f 113/150/124 114/151/124 129/166/124
f 107/144/125 122/159/125 121/158/125
f 114/151/126 115/152/126 130/167/126
f 107/144/127 108/145/127 123/160/127
f 116/153/128 131/168/128 130/167/128
f 108/145/129 109/146/129 124/161/129
f 116/153/130 117/154/130 132/169/130
f 110/147/131 125/162/131 124/161/131
f 118/155/132 133/170/132 132/169/132
f 110/147/133 111/148/133 126/163/133
f 118/155/134 119/156/134 134/171/134
f 131/168/135 146/183/135 145/182/135
f 123/160/136 124/161/136 139/176/136
f 131/168/137 132/169/137 147/184/137
f 125/162/138 140/177/138 139/176/138
f 133/170/139 148/185/139 147/184/139
f 125/162/140 126/163/140 141/178/140
f 133/170/141 134/171/141 149/186/141
f 127/164/142 142/179/142 141/178/142
f 134/171/143 135/172/143 150/187/143
f 128/165/144 143/180/144 142/179/144
f 121/158/145 136/173/145 90/104/145
f 316/361/146 150/187/146 135/172/146
f 128/165/147 129/166/147 144/181/147
f 121/158/148 122/159/148 137/174/148
f 129/166/149 130/167/149 145/182/149
f 122/159/150 123/160/150 138/175/150
f 150/187/151 165/202/151 164/201/151
f 143/180/152 158/195/152 157/194/152
f 136/173/153 151/188/153 90/105/153
f 316/362/154 165/202/154 150/187/154
f 143/180/155 144/181/155 159/196/155
f 136/173/156 137/174/156 152/189/156
f 144/181/157 145/182/157 160/197/157
f 138/175/158 153/190/158 152/189/158
f 146/183/159 161/198/159 160/197/159
f 138/175/160 139/176/160 154/191/160
f 146/183/161 147/184/161 162/199/161
f 140/177/162 155/192/162 154/191/162
f 148/185/163 163/200/163 162/199/163
f 140/177/164 141/178/164 156/193/164
f 148/185/165 149/186/165 164/201/165
f 142/179/166 157/194/166 156/193/166
f 153/190/167 154/191/167 169/206/167
f 161/198/168 162/199/168 177/214/168
f 155/192/169 170/207/169 169/206/169
f 163/200/170 178/215/170 177/214/170
f 155/192/171 156/193/171 171/208/171
f 163/200/172 164/201/172 179/216/172
f 157/194/173 172/209/173 171/208/173
f 164/201/174 165/202/174 180/217/174
f 158/195/175 173/210/175 172/209/175
f 151/188/176 166/203/176 90/106/176
f 316/363/177 180/217/177 165/202/177
f 158/195/178 159/196/178 174/211/178
f 151/188/179 152/189/179 167/204/179
f 159/196/180 160/197/180 175/212/180
f 153/190/181 168/205/181 167/204/181
f 161/198/182 176/213/182 175/212/182
f 173/210/183 188/225/183 187/224/183
f 166/203/184 181/218/184 90/107/184
f 316/364/185 195/232/185 180/217/185
f 173/210/186 174/211/186 189/226/186
f 166/203/187 167/204/187 182/219/187
f 174/211/188 175/212/188 190/227/188
f 167/204/189 168/205/189 183/220/189
f 176/213/190 191/228/190 190/227/190
f 168/205/191 169/206/191 184/221/191
f 176/213/192 177/214/192 192/229/192
f 170/207/193 185/222/193 184/221/193
f 177/214/194 178/215/194 193/230/194
f 170/207/195 171/208/195 186/223/195
f 179/216/196 194/231/196 193/230/196
f 172/209/197 187/224/197 186/223/197
f 180/217/198 195/232/198 194/231/198
f 191/228/199 192/229/199 207/244/199
f 185/222/200 200/237/200 199/236/200
f 193/230/201 208/245/201 207/244/201
f 185/222/202 186/223/202 201/238/202
f 193/230/203 194/231/203 209/246/203
f 187/224/204 202/239/204 201/238/204
f 194/231/205 195/232/205 210/247/205
f 188/225/206 203/240/206 202/239/206
f 181/218/207 196/233/207 90/108/207
f 316/365/208 210/247/208 195/232/208
f 188/225/209 189/226/209 204/241/209
f 182/219/210 197/234/210 196/233/210
f 189/226/211 190/227/211 205/242/211
f 183/220/212 198/235/212 197/234/212
f 191/228/213 206/243/213 205/242/213
f 183/220/214 184/221/214 199/236/214
f 316/366/215 225/262/215 210/247/215
f 203/240/216 204/241/216 219/256/216
f 196/233/217 197/234/217 212/249/217
f 204/241/218 205/242/218 220/257/218
f 197/234/219 198/235/219 213/250/219
f 206/243/220 221/258/220 220/257/220
f 198/235/221 199/236/221 214/251/221
f 206/243/222 207/244/222 222/259/222
f 200/237/223 215/252/223 214/251/223
f 208/245/224 223/260/224 222/259/224
f 200/237/225 201/238/225 216/253/225
f 208/245/226 209/246/226 224/261/226
f 202/239/227 217/254/227 216/253/227
f 209/246/228 210/247/228 225/262/228
f 203/240/229 218/255/229 217/254/229
f 196/233/230 211/248/230 90/109/230
f 223/260/231 238/275/231 237/274/231
f 215/252/232 216/253/232 231/268/232
f 223/260/233 224/261/233 239/276/233
f 217/254/234 232/269/234 231/268/234
f 224/261/235 225/262/235 240/277/235
f 218/255/236 233/270/236 232/269/236
f 211/248/237 226/263/237 90/110/237
f 316/367/238 240/277/238 225/262/238
f 218/255/239 219/256/239 234/271/239
f 211/248/240 212/249/240 227/264/240
f 219/256/241 220/257/241 235/272/241
f 212/249/242 213/250/242 228/265/242
f 221/258/243 236/273/243 235/272/243
f 213/250/244 214/251/244 229/266/244
f 221/258/245 222/259/245 237/274/245
f 215/252/246 230/267/246 229/266/246
f 226/263/247 227/264/247 242/279/247
f 234/271/248 235/272/248 250/287/248
f 228/265/249 243/280/249 242/279/249
f 236/273/250 251/288/250 250/287/250
f 228/265/251 229/266/251 244/281/251
f 236/273/252 237/274/252 252/289/252
f 230/267/253 245/282/253 244/281/253
f 238/275/254 253/290/254 252/289/254
f 230/267/255 231/268/255 246/283/255
f 238/275/256 239/276/256 254/291/256
f 232/269/257 247/284/257 246/283/257
f 240/277/258 255/292/258 254/291/258
f 233/270/259 248/285/259 247/284/259
f 226/263/260 241/278/260 90/111/260
f 316/368/261 255/292/261 240/277/261
f 233/270/262 234/271/262 249/286/262
f 245/282/263 246/283/263 261/298/263
f 253/290/264 254/291/264 269/306/264
f 247/284/265 262/299/265 261/298/265
f 254/291/266 255/292/266 270/307/266
f 248/285/267 263/300/267 262/299/267
f 241/278/268 256/293/268 90/112/268
f 316/369/269 270/307/269 255/292/269
f 248/285/270 249/286/270 264/301/270
f 241/278/271 242/279/271 257/294/271
f 249/286/272 250/287/272 265/302/272
f 242/279/273 243/280/273 258/295/273
f 251/288/274 266/303/274 265/302/274
f 243/280/275 244/281/275 259/296/275
f 251/288/276 252/289/276 267/304/276
f 245/282/277 260/297/277 259/296/277
f 253/290/278 268/305/278 267/304/278
f 264/301/279 265/302/279 280/317/279
f 257/294/280 258/295/280 273/310/280
f 266/303/281 281/318/281 280/317/281
f 258/295/282 259/296/282 274/311/282
f 266/303/283 267/304/283 282/319/283
f 260/297/284 275/312/284 274/311/284
f 268/305/285 283/320/285 282/319/285
f 260/297/286 261/298/286 276/313/286
f 268/305/287 269/306/287 284/321/287
f 262/299/288 277/314/288 276/313/288
f 269/306/289 270/307/289 285/322/289
f 263/300/290 278/315/290 277/314/290
f 256/293/291 271/308/291 90/113/291
f 316/370/292 285/322/292 270/307/292
f 263/300/293 264/301/293 279/316/293
f 257/294/294 272/309/294 271/308/294
f 283/320/295 284/321/295 299/336/295
f 277/314/296 292/329/296 291/328/296
f 285/322/297 300/337/297 299/336/297
f 278/315/298 293/330/298 292/329/298
f 271/308/299 286/323/299 90/114/299
f 316/371/300 300/337/300 285/322/300
f 278/315/301 279/316/301 294/331/301
f 272/309/302 287/324/302 286/323/302
f 279/316/303 280/317/303 295/332/303
f 272/309/304 273/310/304 288/325/304
f 281/318/305 296/333/305 295/332/305
f 273/310/306 274/311/306 289/326/306
f 281/318/307 282/319/307 297/334/307
f 275/312/308 290/327/308 289/326/308
f 283/320/309 298/335/309 297/334/309
f 275/312/310 276/313/310 291/328/310
f 287/324/311 288/325/311 303/340/311
f 296/333/312 311/348/312 310/347/312
f 288/325/313 289/326/313 304/341/313
f 296/333/314 297/334/314 312/349/314
f 290/327/315 305/342/315 304/341/315
f 298/335/316 313/350/316 312/349/316
f 290/327/317 291/328/317 306/343/317
f 298/335/318 299/336/318 314/351/318
f 292/329/319 307/344/319 306/343/319
f 300/337/320 315/352/320 314/351/320
f 293/330/321 308/345/321 307/344/321
f 286/323/322 301/338/322 90/115/322
f 316/372/323 315/352/323 300/337/323
f 293/330/324 294/331/324 309/346/324
f 286/323/325 287/324/325 302/339/325
f 294/331/326 295/332/326 310/347/326
f 307/344/327 323/391/327 322/390/327
f 314/351/328 315/352/328 331/399/328
f 308/345/329 324/392/329 323/391/329
f 301/338/330 317/385/330 90/116/330
f 316/373/331 331/399/331 315/352/331
f 308/345/332 309/346/332 325/393/332
f 301/338/333 302/339/333 318/386/333
f 309/346/334 310/347/334 326/394/334
f 302/339/335 303/340/335 319/387/335
f 311/348/336 327/395/336 326/394/336
f 303/340/337 304/341/337 320/388/337
f 311/348/338 312/349/338 328/396/338
f 305/342/339 321/389/339 320/388/339
f 313/350/340 329/397/340 328/396/340
f 305/342/341 306/343/341 322/390/341
f 313/350/342 314/351/342 330/398/342
f 327/395/343 342/410/343 341/409/343
f 319/387/344 320/388/344 335/403/344
f 327/395/345 328/396/345 343/411/345
f 320/388/346 321/389/346 336/404/346
f 329/397/347 344/412/347 343/411/347
f 321/389/348 322/390/348 337/405/348
f 329/397/349 330/398/349 345/413/349
f 323/391/350 338/406/350 337/405/350
f 330/398/351 331/399/351 346/414/351
f 324/392/352 339/407/352 338/406/352
f 317/385/353 332/400/353 90/117/353
f 316/374/354 346/414/354 331/399/354
f 324/392/355 325/393/355 340/408/355
f 317/385/356 318/386/356 333/401/356
f 325/393/357 326/394/357 341/409/357
f 318/386/358 319/387/358 334/402/358
f 345/413/359 346/414/359 361/429/359
f 339/407/360 354/422/360 353/421/360
f 332/400/361 347/415/361 90/118/361
f 316/375/362 361/429/362 346/414/362
f 339/407/363 340/408/363 355/423/363
f 332/400/364 333/401/364 348/416/364
f 340/408/365 341/409/365 356/424/365
f 333/401/366 334/402/366 349/417/366
f 342/410/367 357/425/367 356/424/367
f 334/402/368 335/403/368 350/418/368
f 342/410/369 343/411/369 358/426/369
f 336/404/370 351/419/370 350/418/370
f 344/412/371 359/427/371 358/426/371
f 336/404/372 337/405/372 352/420/372
f 344/412/373 345/413/373 360/428/373
f 338/406/374 353/421/374 352/420/374
f 357/425/375 358/426/375 373/452/375
f 351/419/376 366/438/376 365/436/376
f 359/427/377 374/454/377 373/452/377
f 351/419/378 352/420/378 367/440/378
f 359/427/379 360/428/379 375/456/379
f 353/421/380 368/442/380 367/440/380
f 360/428/381 361/429/381 376/459/381
f 354/422/382 369/444/382 368/442/382
f 347/415/383 362/430/383 90/119/383
f 316/376/384 376/459/384 361/429/384
f 354/422/385 355/423/385 370/446/385
f 347/415/386 348/416/386 363/432/386
f 355/423/387 356/424/387 371/448/387
f 349/417/388 364/434/388 363/432/388
f 357/425/389 372/450/389 371/448/389
f 349/417/390 350/418/390 365/436/390
f 362/431/391 377/460/391 90/120/391
f 316/377/392 391/474/392 376/458/392
f 369/445/393 370/447/393 385/468/393
f 362/431/394 363/433/394 378/461/394
f 370/447/395 371/449/395 386/469/395
f 364/435/396 379/462/396 378/461/396
f 372/451/397 387/470/397 386/469/397
f 364/435/398 365/437/398 380/463/398
f 372/451/399 373/453/399 388/471/399
f 366/439/400 381/464/400 380/463/400
f 374/455/401 389/472/401 388/471/401
f 366/439/402 367/441/402 382/465/402
f 374/455/403 375/457/403 390/473/403
f 368/443/404 383/466/404 382/465/404
f 375/457/405 376/458/405 391/474/405
f 369/445/406 384/467/406 383/466/406
f 381/464/407 396/479/407 395/478/407
f 389/472/408 404/487/408 403/486/408
f 381/464/409 382/465/409 397/480/409
f 389/472/410 390/473/410 405/488/410
f 383/466/411 398/481/411 397/480/411
f 390/473/412 391/474/412 406/489/412
f 384/467/413 399/482/413 398/481/413
f 377/460/414 392/475/414 90/121/414
f 316/378/415 406/489/415 391/474/415
f 384/467/416 385/468/416 400/483/416
f 377/460/417 378/461/417 393/476/417
f 385/468/418 386/469/418 401/484/418
f 379/462/419 394/477/419 393/476/419
f 387/470/420 402/485/420 401/484/420
f 379/462/421 380/463/421 395/478/421
f 387/470/422 388/471/422 403/486/422
f 399/482/423 400/483/423 415/498/423
f 393/476/424 408/491/424 407/490/424
f 400/483/425 401/484/425 416/499/425
f 393/476/426 394/477/426 409/492/426
f 402/485/427 417/500/427 416/499/427
f 394/477/428 395/478/428 410/493/428
f 402/485/429 403/486/429 418/501/429
f 396/479/430 411/494/430 410/493/430
f 404/487/431 419/502/431 418/501/431
f 396/479/432 397/480/432 412/495/432
f 405/488/433 420/503/433 419/502/433
f 398/481/434 413/496/434 412/495/434
f 405/488/435 406/489/435 421/504/435
f 399/482/436 414/497/436 413/496/436
f 392/475/437 407/490/437 90/122/437
f 316/379/438 421/504/438 406/489/438
f 419/502/439 434/517/439 433/516/439
f 411/494/440 412/495/440 427/510/440
f 419/502/441 420/503/441 435/518/441
f 413/496/442 428/511/442 427/510/442
f 420/503/443 421/504/443 436/519/443
f 414/497/444 429/512/444 428/511/444
f 407/490/445 422/505/445 90/123/445
f 316/380/446 436/519/446 421/504/446
f 414/497/447 415/498/447 430/513/447
f 407/490/448 408/491/448 423/506/448
f 415/498/449 416/499/449 431/514/449
f 409/492/450 424/507/450 423/506/450
f 417/500/451 432/515/451 431/514/451
f 409/492/452 410/493/452 425/508/452
f 417/500/453 418/501/453 433/516/453
f 411/494/454 426/509/454 425/508/454
f 422/505/455 423/506/455 438/521/455
f 430/513/456 431/514/456 446/529/456
f 424/507/457 439/522/457 438/521/457
f 432/515/458 447/530/458 446/529/458
f 424/507/459 425/508/459 440/523/459
f 432/515/460 433/516/460 448/531/460
f 426/509/461 441/524/461 440/523/461
f 434/517/462 449/532/462 448/531/462
f 426/509/463 427/510/463 442/525/463
f 434/517/464 435/518/464 450/533/464
f 428/511/465 443/526/465 442/525/465
f 435/518/466 436/519/466 451/534/466
f 429/512/467 444/527/467 443/526/467
f 422/505/468 437/520/468 90/124/468
f 316/381/469 451/534/469 436/519/469
f 429/512/470 430/513/470 445/528/470
f 441/524/471 442/525/471 457/540/471
f 449/532/472 450/533/472 465/548/472
f 443/526/473 458/541/473 457/540/473
f 450/533/474 451/534/474 466/549/474
f 444/527/475 459/542/475 458/541/475
f 437/520/476 452/535/476 90/125/476
f 316/382/477 466/549/477 451/534/477
f 444/527/478 445/528/478 460/543/478
f 438/521/479 453/536/479 452/535/479
f 445/528/480 446/529/480 461/544/480
f 438/521/481 439/522/481 454/537/481
f 447/530/482 462/545/482 461/544/482
f 439/522/483 440/523/483 455/538/483
f 447/530/484 448/531/484 463/546/484
f 441/524/485 456/539/485 455/538/485
f 449/532/486 464/547/486 463/546/486
f 460/543/487 461/544/487 476/559/487
f 454/537/488 469/552/488 468/551/488
f 462/545/489 477/560/489 476/559/489
f 454/537/490 455/538/490 470/553/490
f 462/545/491 463/546/491 478/561/491
f 456/539/492 471/554/492 470/553/492
f 464/547/493 479/562/493 478/561/493
f 456/539/494 457/540/494 472/555/494
f 464/547/495 465/548/495 480/563/495
f 458/541/496 473/556/496 472/555/496
f 466/549/497 481/564/497 480/563/497
f 459/542/498 474/557/498 473/556/498
f 452/535/499 467/550/499 90/126/499
f 316/383/500 481/564/500 466/549/500
f 459/542/501 460/543/501 475/558/501
f 452/535/502 453/536/502 468/551/502
f 479/562/503 480/563/503 489/572/503
f 473/556/504 11/17/504 485/568/504
f 480/563/505 481/564/505 490/573/505
f 474/557/506 12/18/506 11/17/506
f 467/550/507 482/565/507 90/127/507
f 316/384/508 490/573/508 481/564/508
f 474/557/509 475/558/509 13/19/509
f 468/551/510 483/566/510 482/565/510
f 475/558/511 476/559/511 486/569/511
f 469/552/512 9/15/512 483/566/512
f 476/559/513 477/560/513 14/20/513
f 470/553/514 484/567/514 9/15/514
f 477/560/515 478/561/515 487/570/515
f 471/554/516 10/16/516 484/567/516
f 479/562/517 488/571/517 487/570/517
f 472/555/518 485/568/518 10/16/518
f 488/571/7 28/34/7 27/33/7
f 11/17/8 20/26/8 485/568/8
f 489/572/9 29/35/9 28/34/9
f 11/17/10 22/28/10 21/27/10
f 12/18/13 23/29/13 22/28/13
f 483/566/14 15/21/14 482/565/14
f 13/19/15 24/30/15 23/29/15
f 9/15/16 16/22/16 483/566/16
f 486/569/17 25/31/17 24/30/17
f 484/567/18 17/23/18 9/15/18
f 14/20/19 26/32/19 25/31/19
f 10/16/20 18/24/20 484/567/20
f 487/570/21 27/33/21 26/32/21
f 485/568/22 19/25/22 10/16/22
f 18/24/23 34/40/23 33/39/23
f 27/33/24 41/47/24 26/32/24
f 19/25/25 35/41/25 34/40/25
f 28/34/26 42/48/26 27/33/26
f 21/27/27 35/41/27 20/26/27
f 28/34/28 44/50/28 43/49/28
f 21/27/29 37/43/29 36/42/29
f 22/28/32 38/44/32 37/43/32
f 15/21/33 31/37/33 30/36/33
f 23/29/34 39/45/34 38/44/34
f 16/22/35 32/38/35 31/37/35
f 24/30/36 40/46/36 39/45/36
f 17/23/37 33/39/37 32/38/37
f 25/31/38 41/47/38 40/46/38
f 38/44/39 52/58/39 37/43/39
f 30/36/40 46/52/40 45/51/40
f 38/44/41 54/60/41 53/59/41
f 31/37/42 47/53/42 46/52/42
f 40/46/43 54/60/43 39/45/43
f 32/38/44 48/54/44 47/53/44
f 41/47/45 55/61/45 40/46/45
f 33/39/46 49/55/46 48/54/46
f 42/48/47 56/62/47 41/47/47
f 34/40/48 50/56/48 49/55/48
f 42/48/49 58/64/49 57/63/49
f 35/41/50 51/57/50 50/56/50
f 43/49/51 59/65/51 58/64/51
f 36/42/52 52/58/52 51/57/52
f 56/62/55 72/78/55 71/77/55
f 49/55/56 65/71/56 64/70/56
f 57/63/57 73/79/57 72/78/57
f 51/57/58 65/71/58 50/56/58
f 58/64/59 74/80/59 73/79/59
f 52/58/60 66/72/60 51/57/60
f 52/58/63 68/74/63 67/73/63
f 45/51/64 61/67/64 60/66/64
f 53/59/65 69/75/65 68/74/65
f 46/52/66 62/68/66 61/67/66
f 55/61/67 69/75/67 54/60/67
f 47/53/68 63/69/68 62/68/68
f 55/61/69 71/77/69 70/76/69
f 48/54/70 64/70/70 63/69/70
f 68/74/71 84/90/71 83/89/71
f 61/67/72 77/83/72 76/82/72
f 70/76/73 84/90/73 69/75/73
f 62/68/74 78/84/74 77/83/74
f 70/76/75 86/92/75 85/91/75
f 64/70/76 78/84/76 63/69/76
f 71/77/77 87/93/77 86/92/77
f 64/70/78 80/86/78 79/85/78
f 73/79/79 87/93/79 72/78/79
f 66/72/80 80/86/80 65/71/80
f 73/79/81 89/95/81 88/94/81
f 67/73/82 81/87/82 66/72/82
f 67/73/85 83/89/85 82/88/85
f 60/66/86 76/82/86 75/81/86
f 87/93/87 104/141/87 103/140/87
f 81/87/88 96/133/88 80/86/88
f 89/95/89 104/141/89 88/94/89
f 82/88/90 97/134/90 81/87/90
f 82/88/93 99/136/93 98/135/93
f 75/81/94 92/129/94 91/128/94
f 83/89/95 100/137/95 99/136/95
f 76/82/96 93/130/96 92/129/96
f 85/91/97 100/137/97 84/90/97
f 77/83/98 94/131/98 93/130/98
f 85/91/99 102/139/99 101/138/99
f 79/85/100 94/131/100 78/84/100
f 86/92/101 103/140/101 102/139/101
f 79/85/102 96/133/102 95/132/102
f 92/129/103 108/145/103 107/144/103
f 101/138/104 115/152/104 100/137/104
f 93/130/105 109/146/105 108/145/105
f 101/138/106 117/154/106 116/153/106
f 95/132/107 109/146/107 94/131/107
f 103/140/108 117/154/108 102/139/108
f 95/132/109 111/148/109 110/147/109
f 104/141/110 118/155/110 103/140/110
f 97/134/111 111/148/111 96/133/111
f 104/141/112 120/157/112 119/156/112
f 98/135/113 112/149/113 97/134/113
f 98/135/116 114/151/116 113/150/116
f 92/129/117 106/143/117 91/128/117
f 99/136/118 115/152/118 114/151/118
f 112/149/119 126/163/119 111/148/119
f 119/156/120 135/172/120 134/171/120
f 113/150/121 127/164/121 112/149/121
f 113/150/124 129/166/124 128/165/124
f 107/144/125 121/158/125 106/143/125
f 114/151/126 130/167/126 129/166/126
f 107/144/127 123/160/127 122/159/127
f 116/153/128 130/167/128 115/152/128
f 108/145/129 124/161/129 123/160/129
f 116/153/130 132/169/130 131/168/130
f 110/147/131 124/161/131 109/146/131
f 118/155/132 132/169/132 117/154/132
f 110/147/133 126/163/133 125/162/133
f 118/155/134 134/171/134 133/170/134
f 131/168/135 145/182/135 130/167/135
f 123/160/136 139/176/136 138/175/136
f 131/168/137 147/184/137 146/183/137
f 125/162/138 139/176/138 124/161/138
f 133/170/139 147/184/139 132/169/139
f 125/162/140 141/178/140 140/177/140
f 133/170/141 149/186/141 148/185/141
f 127/164/142 141/178/142 126/163/142
f 134/171/143 150/187/143 149/186/143
f 128/165/144 142/179/144 127/164/144
f 128/165/147 144/181/147 143/180/147
f 121/158/148 137/174/148 136/173/148
f 129/166/149 145/182/149 144/181/149
f 122/159/150 138/175/150 137/174/150
f 150/187/151 164/201/151 149/186/151
f 143/180/152 157/194/152 142/179/152
f 143/180/155 159/196/155 158/195/155
f 136/173/156 152/189/156 151/188/156
f 144/181/157 160/197/157 159/196/157
f 138/175/158 152/189/158 137/174/158
f 146/183/159 160/197/159 145/182/159
f 138/175/160 154/191/160 153/190/160
f 146/183/161 162/199/161 161/198/161
f 140/177/162 154/191/162 139/176/162
f 148/185/163 162/199/163 147/184/163
f 140/177/164 156/193/164 155/192/164
f 148/185/165 164/201/165 163/200/165
f 142/179/166 156/193/166 141/178/166
f 153/190/167 169/206/167 168/205/167
f 161/198/168 177/214/168 176/213/168
f 155/192/169 169/206/169 154/191/169
f 163/200/170 177/214/170 162/199/170
f 155/192/171 171/208/171 170/207/171
f 163/200/172 179/216/172 178/215/172
f 157/194/173 171/208/173 156/193/173
f 164/201/174 180/217/174 179/216/174
f 158/195/175 172/209/175 157/194/175
f 158/195/178 174/211/178 173/210/178
f 151/188/179 167/204/179 166/203/179
f 159/196/180 175/212/180 174/211/180
f 153/190/181 167/204/181 152/189/181
f 161/198/182 175/212/182 160/197/182
f 173/210/183 187/224/183 172/209/183
f 173/210/186 189/226/186 188/225/186
f 166/203/187 182/219/187 181/218/187
f 174/211/188 190/227/188 189/226/188
f 167/204/189 183/220/189 182/219/189
f 176/213/190 190/227/190 175/212/190
f 168/205/191 184/221/191 183/220/191
f 176/213/192 192/229/192 191/228/192
f 170/207/193 184/221/193 169/206/193
f 177/214/194 193/230/194 192/229/194
f 170/207/195 186/223/195 185/222/195
f 179/216/196 193/230/196 178/215/196
f 172/209/197 186/223/197 171/208/197
f 180/217/198 194/231/198 179/216/198
f 191/228/199 207/244/199 206/243/199
f 185/222/200 199/236/200 184/221/200
f 193/230/201 207/244/201 192/229/201
f 185/222/202 201/238/202 200/237/202
f 193/230/203 209/246/203 208/245/203
f 187/224/204 201/238/204 186/223/204
f 194/231/205 210/247/205 209/246/205
f 188/225/206 202/239/206 187/224/206
f 188/225/209 204/241/209 203/240/209
f 182/219/210 196/233/210 181/218/210
f 189/226/211 205/242/211 204/241/211
f 183/220/212 197/234/212 182/219/212
f 191/228/213 205/242/213 190/227/213
f 183/220/214 199/236/214 198/235/214
f 203/240/216 219/256/216 218/255/216
f 196/233/217 212/249/217 211/248/217
f 204/241/218 220/257/218 219/256/218
f 197/234/219 213/250/219 212/249/219
f 206/243/220 220/257/220 205/242/220
f 198/235/221 214/251/221 213/250/221
f 206/243/222 222/259/222 221/258/222
f 200/237/223 214/251/223 199/236/223
f 208/245/224 222/259/224 207/244/224
f 200/237/225 216/253/225 215/252/225
f 208/245/226 224/261/226 223/260/226
f 202/239/227 216/253/227 201/238/227
f 209/246/228 225/262/228 224/261/228
f 203/240/229 217/254/229 202/239/229
f 223/260/231 237/274/231 222/259/231
f 215/252/232 231/268/232 230/267/232
f 223/260/233 239/276/233 238/275/233
f 217/254/234 231/268/234 216/253/234
f 224/261/235 240/277/235 239/276/235
f 218/255/236 232/269/236 217/254/236
f 218/255/239 234/271/239 233/270/239
f 211/248/240 227/264/240 226/263/240
f 219/256/241 235/272/241 234/271/241
f 212/249/242 228/265/242 227/264/242
f 221/258/243 235/272/243 220/257/243
f 213/250/244 229/266/244 228/265/244
f 221/258/245 237/274/245 236/273/245
f 215/252/246 229/266/246 214/251/246
f 226/263/247 242/279/247 241/278/247
f 234/271/248 250/287/248 249/286/248
f 228/265/249 242/279/249 227/264/249
f 236/273/250 250/287/250 235/272/250
f 228/265/251 244/281/251 243/280/251
f 236/273/252 252/289/252 251/288/252
f 230/267/253 244/281/253 229/266/253
f 238/275/254 252/289/254 237/274/254
f 230/267/255 246/283/255 245/282/255
f 238/275/256 254/291/256 253/290/256
f 232/269/257 246/283/257 231/268/257
f 240/277/258 254/291/258 239/276/258
f 233/270/259 247/284/259 232/269/259
f 233/270/262 249/286/262 248/285/262
f 245/282/263 261/298/263 260/297/263
f 253/290/264 269/306/264 268/305/264
f 247/284/265 261/298/265 246/283/265
f 254/291/266 270/307/266 269/306/266
f 248/285/267 262/299/267 247/284/267
f 248/285/270 264/301/270 263/300/270
f 241/278/271 257/294/271 256/293/271
f 249/286/272 265/302/272 264/301/272
f 242/279/273 258/295/273 257/294/273
f 251/288/274 265/302/274 250/287/274
f 243/280/275 259/296/275 258/295/275
f 251/288/276 267/304/276 266/303/276
f 245/282/277 259/296/277 244/281/277
f 253/290/278 267/304/278 252/289/278
f 264/301/279 280/317/279 279/316/279
f 257/294/280 273/310/280 272/309/280
f 266/303/281 280/317/281 265/302/281
f 258/295/282 274/311/282 273/310/282
f 266/303/283 282/319/283 281/318/283
f 260/297/284 274/311/284 259/296/284
f 268/305/285 282/319/285 267/304/285
f 260/297/286 276/313/286 275/312/286
f 268/305/287 284/321/287 283/320/287
f 262/299/288 276/313/288 261/298/288
f 269/306/289 285/322/289 284/321/289
f 263/300/290 277/314/290 262/299/290
f 263/300/293 279/316/293 278/315/293
f 257/294/294 271/308/294 256/293/294
f 283/320/295 299/336/295 298/335/295
f 277/314/296 291/328/296 276/313/296
f 285/322/297 299/336/297 284/321/297
f 278/315/298 292/329/298 277/314/298
f 278/315/301 294/331/301 293/330/301
f 272/309/302 286/323/302 271/308/302
f 279/316/303 295/332/303 294/331/303
f 272/309/304 288/325/304 287/324/304
f 281/318/305 295/332/305 280/317/305
f 273/310/306 289/326/306 288/325/306
f 281/318/307 297/334/307 296/333/307
f 275/312/308 289/326/308 274/311/308
f 283/320/309 297/334/309 282/319/309
f 275/312/310 291/328/310 290/327/310
f 287/324/311 303/340/311 302/339/311
f 296/333/312 310/347/312 295/332/312
f 288/325/313 304/341/313 303/340/313
f 296/333/314 312/349/314 311/348/314
f 290/327/315 304/341/315 289/326/315
f 298/335/316 312/349/316 297/334/316
f 290/327/317 306/343/317 305/342/317
f 298/335/318 314/351/318 313/350/318
f 292/329/319 306/343/319 291/328/319
f 300/337/320 314/351/320 299/336/320
f 293/330/321 307/344/321 292/329/321
f 293/330/324 309/346/324 308/345/324
f 286/323/325 302/339/325 301/338/325
f 294/331/326 310/347/326 309/346/326
f 307/344/327 322/390/327 306/343/327
f 314/351/328 331/399/328 330/398/328
f 308/345/329 323/391/329 307/344/329
f 308/345/332 325/393/332 324/392/332
f 301/338/333 318/386/333 317/385/333
f 309/346/334 326/394/334 325/393/334
f 302/339/335 319/387/335 318/386/335
f 311/348/336 326/394/336 310/347/336
f 303/340/337 320/388/337 319/387/337
f 311/348/338 328/396/338 327/395/338
f 305/342/339 320/388/339 304/341/339
f 313/350/340 328/396/340 312/349/340
f 305/342/341 322/390/341 321/389/341
f 313/350/342 330/398/342 329/397/342
f 327/395/343 341/409/343 326/394/343
f 319/387/344 335/403/344 334/402/344
f 327/395/345 343/411/345 342/410/345
f 320/388/346 336/404/346 335/403/346
f 329/397/347 343/411/347 328/396/347
f 321/389/348 337/405/348 336/404/348
f 329/397/349 345/413/349 344/412/349
f 323/391/350 337/405/350 322/390/350
f 330/398/351 346/414/351 345/413/351
f 324/392/352 338/406/352 323/391/352
f 324/392/355 340/408/355 339/407/355
f 317/385/356 333/401/356 332/400/356
f 325/393/357 341/409/357 340/408/357
f 318/386/358 334/402/358 333/401/358
f 345/413/359 361/429/359 360/428/359
f 339/407/360 353/421/360 338/406/360
f 339/407/363 355/423/363 354/422/363
f 332/400/364 348/416/364 347/415/364
f 340/408/365 356/424/365 355/423/365
f 333/401/366 349/417/366 348/416/366
f 342/410/367 356/424/367 341/409/367
f 334/402/368 350/418/368 349/417/368
f 342/410/369 358/426/369 357/425/369
f 336/404/370 350/418/370 335/403/370
f 344/412/371 358/426/371 343/411/371
f 336/404/372 352/420/372 351/419/372
f 344/412/373 360/428/373 359/427/373
f 338/406/374 352/420/374 337/405/374
f 357/425/375 373/452/375 372/450/375
f 351/419/376 365/436/376 350/418/376
f 359/427/377 373/452/377 358/426/377
f 351/419/378 367/440/378 366/438/378
f 359/427/379 375/456/379 374/454/379
f 353/421/380 367/440/380 352/420/380
f 360/428/381 376/459/381 375/456/381
f 354/422/382 368/442/382 353/421/382
f 354/422/385 370/446/385 369/444/385
f 347/415/386 363/432/386 362/430/386
f 355/423/387 371/448/387 370/446/387
f 349/417/388 363/432/388 348/416/388
f 357/425/389 371/448/389 356/424/389
f 349/417/390 365/436/390 364/434/390
f 369/445/393 385/468/393 384/467/393
f 362/431/394 378/461/394 377/460/394
f 370/447/395 386/469/395 385/468/395
f 364/435/396 378/461/396 363/433/396
f 372/451/397 386/469/397 371/449/397
f 364/435/398 380/463/398 379/462/398
f 372/451/399 388/471/399 387/470/399
f 366/439/400 380/463/400 365/437/400
f 374/455/401 388/471/401 373/453/401
f 366/439/402 382/465/402 381/464/402
f 374/455/403 390/473/403 389/472/403
f 368/443/404 382/465/404 367/441/404
f 375/457/405 391/474/405 390/473/405
f 369/445/406 383/466/406 368/443/406
f 381/464/407 395/478/407 380/463/407
f 389/472/408 403/486/408 388/471/408
f 381/464/409 397/480/409 396/479/409
f 389/472/410 405/488/410 404/487/410
f 383/466/411 397/480/411 382/465/411
f 390/473/412 406/489/412 405/488/412
f 384/467/413 398/481/413 383/466/413
f 384/467/416 400/483/416 399/482/416
f 377/460/417 393/476/417 392/475/417
f 385/468/418 401/484/418 400/483/418
f 379/462/419 393/476/419 378/461/419
f 387/470/420 401/484/420 386/469/420
f 379/462/421 395/478/421 394/477/421
f 387/470/422 403/486/422 402/485/422
f 399/482/423 415/498/423 414/497/423
f 393/476/424 407/490/424 392/475/424
f 400/483/425 416/499/425 415/498/425
f 393/476/426 409/492/426 408/491/426
f 402/485/427 416/499/427 401/484/427
f 394/477/428 410/493/428 409/492/428
f 402/485/429 418/501/429 417/500/429
f 396/479/430 410/493/430 395/478/430
f 404/487/431 418/501/431 403/486/431
f 396/479/432 412/495/432 411/494/432
f 405/488/433 419/502/433 404/487/433
f 398/481/434 412/495/434 397/480/434
f 405/488/435 421/504/435 420/503/435
f 399/482/436 413/496/436 398/481/436
f 419/502/439 433/516/439 418/501/439
f 411/494/440 427/510/440 426/509/440
f 419/502/441 435/518/441 434/517/441
f 413/496/442 427/510/442 412/495/442
f 420/503/443 436/519/443 435/518/443
f 414/497/444 428/511/444 413/496/444
f 414/497/447 430/513/447 429/512/447
f 407/490/448 423/506/448 422/505/448
f 415/498/449 431/514/449 430/513/449
f 409/492/450 423/506/450 408/491/450
f 417/500/451 431/514/451 416/499/451
f 409/492/452 425/508/452 424/507/452
f 417/500/453 433/516/453 432/515/453
f 411/494/454 425/508/454 410/493/454
f 422/505/455 438/521/455 437/520/455
f 430/513/456 446/529/456 445/528/456
f 424/507/457 438/521/457 423/506/457
f 432/515/458 446/529/458 431/514/458
f 424/507/459 440/523/459 439/522/459
f 432/515/460 448/531/460 447/530/460
f 426/509/461 440/523/461 425/508/461
f 434/517/462 448/531/462 433/516/462
f 426/509/463 442/525/463 441/524/463
f 434/517/464 450/533/464 449/532/464
f 428/511/465 442/525/465 427/510/465
f 435/518/466 451/534/466 450/533/466
f 429/512/467 443/526/467 428/511/467
f 429/512/470 445/528/470 444/527/470
f 441/524/471 457/540/471 456/539/471
f 449/532/472 465/548/472 464/547/472
f 443/526/473 457/540/473 442/525/473
f 450/533/474 466/549/474 465/548/474
f 444/527/475 458/541/475 443/526/475
f 444/527/478 460/543/478 459/542/478
f 438/521/479 452/535/479 437/520/479
f 445/528/480 461/544/480 460/543/480
f 438/521/481 454/537/481 453/536/481
f 447/530/482 461/544/482 446/529/482
f 439/522/483 455/538/483 454/537/483
f 447/530/484 463/546/484 462/545/484
f 441/524/485 455/538/485 440/523/485
f 449/532/486 463/546/486 448/531/486
f 460/543/487 476/559/487 475/558/487
f 454/537/488 468/551/488 453/536/488
f 462/545/489 476/559/489 461/544/489
f 454/537/490 470/553/490 469/552/490
f 462/545/491 478/561/491 477/560/491
f 456/539/492 470/553/492 455/538/492
f 464/547/493 478/561/493 463/546/493
f 456/539/494 472/555/494 471/554/494
f 464/547/495 480/563/495 479/562/495
f 458/541/496 472/555/496 457/540/496
f 466/549/497 480/563/497 465/548/497
f 459/542/498 473/556/498 458/541/498
f 459/542/501 475/558/501 474/557/501
f 452/535/502 468/551/502 467/550/502
f 479/562/503 489/572/503 488/571/503
f 473/556/504 485/568/504 472/555/504
f 480/563/505 490/573/505 489/572/505
f 474/557/506 11/17/506 473/556/506
f 474/557/509 13/19/509 12/18/509
f 468/551/510 482/565/510 467/550/510
f 475/558/511 486/569/511 13/19/511
f 469/552/512 483/566/512 468/551/512
f 476/559/513 14/20/513 486/569/513
f 470/553/514 9/15/514 469/552/514
f 477/560/515 487/570/515 14/20/515
f 471/554/516 484/567/516 470/553/516
f 479/562/517 487/570/517 478/561/517
f 472/555/518 10/16/518 471/554/518
