# Blender 3.3.21
# www.blender.org
mtllib model.mtl
o Sphere
v -0.225891 -0.618062 -0.771975
v -0.070006 0.893439 -0.461335
v 0.077222 0.628184 -0.784051
v 0.057919 0.301900 -0.959114
v 0.291113 0.098970 -0.959673
v 0.092938 -0.293132 -0.961119
v 0.104561 -0.783519 -0.627463
v 0.272674 0.778878 -0.579104
v 0.385242 0.487290 -0.794419
v 0.336874 -0.474460 -0.826422
v 0.604393 0.300872 -0.748774
v 0.558883 -0.149714 -0.831077
v 0.383607 -0.718498 -0.591826
v 0.686881 0.503271 -0.537872
v 0.624289 -0.487417 -0.628039
v -0.016355 0.999440 0.117599
v 0.496393 0.788463 -0.391557
v 0.844562 0.108868 -0.547531
v 0.695541 -0.633224 -0.359460
v 0.327407 -0.898617 -0.336240
v 0.301172 0.932889 -0.235828
v 0.850226 0.475433 -0.260919
v 0.939559 -0.090259 -0.375172
v 0.918663 -0.316658 -0.269816
v 1.000522 0.115511 -0.064524
v 0.775746 -0.638968 -0.072222
v 0.411633 0.895946 0.221526
v 0.551784 0.842014 -0.044455
v 0.956628 -0.295861 0.173572
v 0.168447 -0.984947 -0.112553
v 0.738238 0.691513 0.048730
v 0.881804 0.467887 0.181001
v 0.956240 0.098975 0.307534
v 0.744334 -0.638968 0.230140
v 0.455747 -0.901325 0.002548
v 0.689306 -0.475433 0.561978
v 0.599604 0.638968 0.497466
v 0.756879 0.292918 0.599509
v 0.765762 -0.098975 0.650062
v 0.197698 0.986420 0.025750
v 0.541211 0.098529 0.840618
v 0.467235 -0.791403 0.422922
v 0.275553 0.098975 0.965941
v 0.469502 -0.364021 0.825238
v 0.251166 0.779282 0.591233
v 0.345413 0.479008 0.825073
v 0.260919 -0.475433 0.850226
v 0.191191 -0.777723 0.609921
v 0.158944 -0.965865 0.244808
v -0.093416 0.074357 1.001902
v 0.097535 -0.197140 0.980191
v 0.102623 0.932889 0.368494
v -0.080506 0.638968 0.774930
v -0.183979 0.307755 0.949415
v -0.080506 -0.638968 0.774930
v -0.183979 -0.307755 0.949415
v -0.396471 -0.491477 0.786423
v -0.370931 0.638968 0.685134
v -0.422507 0.385203 0.824936
v -0.385268 -0.787941 0.506962
v -0.198494 0.897346 0.428204
v -0.601983 0.077002 0.812629
v -0.667528 -0.279475 0.712111
v -0.140975 -0.901818 0.433682
v -0.604884 0.638968 0.491032
v -0.752602 0.470410 0.496145
v -0.696720 -0.497100 0.529154
v -0.893623 0.098976 0.458703
v -0.850226 -0.475433 0.260919
v -0.554854 0.805655 0.256621
v -0.942328 -0.197140 0.286887
v -0.649027 -0.712804 0.287952
v -0.442991 -0.893458 0.139565
v -0.088694 -0.999440 0.078933
v -0.884792 0.475433 0.090034
v -0.956011 -0.313439 -0.047493
v -0.626316 0.785170 -0.091879
v -1.005684 0.130347 0.017193
v -0.956239 -0.098976 -0.307534
v -0.435279 -0.900310 -0.146609
v -0.827658 0.479008 -0.339171
v -0.867751 0.115513 -0.502210
v -0.748151 -0.485139 -0.484161
v -0.746182 -0.661925 -0.189317
v -0.147594 -0.984597 -0.138739
v -0.600003 0.712804 -0.379669
v -0.278834 0.970951 -0.019202
v -0.327088 0.887003 -0.348612
v -0.566425 0.475433 -0.685657
v -0.624227 0.098976 -0.786963
v -0.683322 -0.268550 -0.699176
v -0.425443 -0.792708 -0.455675
v 0.019948 0.981621 -0.202530
v -0.278965 0.718497 -0.647758
v -0.260919 0.475432 -0.850226
v -0.209111 0.071271 -0.990741
v -0.288332 -0.300258 -0.919952
v -0.110034 -0.895133 -0.451043
vn 0.0578 -0.5440 -0.8371
vn 0.0216 -0.9618 -0.2729
vn 0.0580 0.0694 -0.9959
vn 0.0046 -0.9976 -0.0693
vn 0.3090 -0.1527 -0.9387
vn 0.1183 0.9266 -0.3569
vn 0.2431 -0.6476 -0.7221
vn 0.1796 0.4568 -0.8712
vn 0.2563 -0.8157 -0.5185
vn 0.4115 0.2706 -0.8703
vn 0.3075 0.8584 -0.4106
vn 0.0387 0.9979 -0.0512
vn 0.5177 -0.3650 -0.7738
vn 0.4817 0.6333 -0.6058
vn 0.6717 0.0669 -0.7378
vn 0.7443 0.3120 -0.5905
vn 0.7673 -0.1694 -0.6186
vn 0.5568 -0.6591 -0.5055
vn 0.8016 -0.3115 -0.5103
vn 0.4695 0.8582 -0.2073
vn 0.6903 0.6371 -0.3431
vn 0.5850 -0.7784 -0.2278
vn 0.9270 0.2221 -0.3024
vn 0.8242 -0.5128 -0.2404
vn 0.6764 0.7039 -0.2166
vn 0.4087 0.9123 -0.0250
vn 0.9887 -0.1279 -0.0787
vn 0.9633 0.2373 0.1252
vn 0.8535 -0.5135 0.0887
vn 0.5725 -0.7969 0.1927
vn 0.2574 -0.9646 0.0583
vn 0.0974 -0.9937 0.0556
vn 0.3785 -0.8980 0.2245
vn 0.8486 0.0866 0.5219
vn 0.8976 -0.1409 0.4177
vn 0.6105 0.7425 0.2756
vn 0.2132 0.9546 0.2082
vn 0.6681 -0.2955 0.6829
vn 0.2946 0.8672 0.4015
vn 0.4347 0.7874 0.4371
vn 0.4287 0.6350 0.6427
vn 0.5777 0.4612 0.6734
vn 0.5627 0.3207 0.7619
vn 0.4167 -0.6243 0.6608
vn 0.4136 0.2486 0.8759
vn 0.3226 -0.1489 0.9348
vn 0.1369 -0.6356 0.7598
vn -0.0306 -0.7892 0.6133
vn 0.0934 -0.8884 0.4495
vn 0.0776 0.2473 0.9658
vn 0.0553 -0.3957 0.9167
vn 0.0137 0.8274 0.5615
vn 0.0245 -0.4599 0.8876
vn -0.0605 -0.1218 0.9907
vn -0.2606 0.5125 0.8182
vn -0.0428 -0.9649 0.2592
vn -0.3475 0.0754 0.9347
vn -0.0573 0.9579 0.2813
vn -0.1941 0.7538 0.6278
vn -0.4422 -0.1672 0.8812
vn -0.4378 -0.2578 0.8613
vn -0.4020 0.1984 0.8939
vn -0.5507 0.4859 0.6788
vn -0.5634 -0.4861 0.6681
vn -0.4105 0.7660 0.4948
vn -0.5823 -0.6598 0.4749
vn -0.3246 -0.8944 0.3079
vn -0.7461 0.2199 0.6285
vn -0.8429 -0.1595 0.5139
vn -0.8440 -0.2742 0.4609
vn -0.4901 -0.8143 0.3109
vn -0.7451 0.6183 0.2502
vn -0.9281 0.2714 0.2549
vn -0.2847 -0.9585 0.0117
vn -0.9889 -0.1228 0.0832
vn -0.9342 -0.3233 0.1507
vn -0.4785 0.8768 0.0466
vn -0.8531 -0.5213 0.0188
vn -0.7648 -0.6383 0.0876
vn -0.6087 -0.7934 0.0026
vn -0.7921 0.6020 -0.1004
vn -0.9918 -0.0992 -0.0810
vn -0.8919 -0.3492 -0.2872
vn -0.9415 0.2188 -0.2563
vn -0.5573 -0.7785 -0.2888
vn -0.4389 0.8840 -0.1610
vn -0.6123 -0.6799 -0.4035
vn -0.6608 0.5562 -0.5040
vn -0.7212 0.2811 -0.6331
vn -0.2880 -0.9015 -0.3230
vn -0.5094 -0.5246 -0.6821
vn -0.4268 0.7569 -0.4950
vn -0.4917 -0.1267 -0.8615
vn -0.1439 0.9509 -0.2740
vn -0.3889 0.5724 -0.7219
vn -0.2434 -0.7759 -0.5820
vn -0.4129 0.2514 -0.8754
vn -0.0747 0.9952 -0.0639
vn -0.0560 0.7586 -0.6491
vn -0.0422 0.4743 -0.8794
vn -0.1028 -0.1650 -0.9809
vn 0.0635 -0.0284 -0.9976
vn 0.0481 0.7823 -0.6211
vn 0.0681 -0.5757 -0.8148
vn 0.1071 -0.8939 -0.4353
vn 0.0745 -0.9470 -0.3125
vn 0.3283 -0.2375 -0.9142
vn 0.1569 0.8961 -0.4151
vn 0.2671 0.6370 -0.7231
vn 0.2755 0.3191 -0.9068
vn 0.4476 -0.5737 -0.6859
vn 0.5080 0.1049 -0.8550
vn 0.1530 0.9783 -0.1397
vn 0.4814 0.6327 -0.6066
vn 0.5523 0.4829 -0.6795
vn 0.5145 -0.7501 -0.4155
vn 0.7629 -0.2181 -0.6086
vn 0.7873 -0.4297 -0.4421
vn 0.8244 0.3407 -0.4520
vn 0.3249 -0.9367 -0.1306
vn 0.5685 -0.8039 -0.1748
vn 0.9349 0.1825 -0.3044
vn 0.6910 0.6857 -0.2286
vn 0.3462 0.9381 -0.0078
vn 0.8994 -0.4335 -0.0567
vn 0.8541 0.5175 -0.0522
vn 0.9324 0.3563 -0.0605
vn 0.9836 -0.1566 -0.0893
vn 0.9925 -0.0385 0.1164
vn 0.6419 -0.7639 0.0667
vn 0.5780 0.8037 0.1416
vn 0.8685 0.3084 0.3882
vn 0.8465 -0.2781 0.4540
vn 0.8196 -0.4483 0.3568
vn 0.6443 -0.6383 0.4214
vn 0.7151 0.6337 0.2951
vn 0.7685 0.4755 0.4282
vn 0.6965 0.1073 0.7095
vn 0.5809 -0.1168 0.8056
vn 0.4629 -0.6089 0.6442
vn 0.4125 -0.6233 0.6644
vn 0.2460 -0.8703 0.4267
vn 0.4246 -0.0958 0.9003
vn 0.1410 0.9714 0.1908
vn 0.2598 -0.2792 0.9244
vn 0.1499 0.6363 0.7567
vn 0.0639 0.4494 0.8910
vn 0.1147 0.3267 0.9382
vn 0.0977 -0.0109 0.9952
vn -0.0070 0.8007 0.5990
vn -0.1709 -0.7657 0.6201
vn -0.2548 0.5058 0.8241
vn -0.3486 -0.0460 0.9361
vn -0.2055 -0.5056 0.8379
vn -0.2844 -0.6633 0.6922
vn -0.5516 0.5036 0.6649
vn -0.6208 0.3332 0.7096
vn -0.2056 0.9591 0.1947
vn -0.4234 0.7786 0.4633
vn -0.5149 -0.5982 0.6140
vn -0.2440 -0.9436 0.2237
vn -0.7723 -0.0368 0.6341
vn -0.8235 -0.3165 0.4709
vn -0.3378 0.9171 0.2115
vn -0.7289 -0.5756 0.3706
vn -0.7132 0.6341 0.2987
vn -0.9021 0.3125 0.2975
vn -0.9689 0.0160 0.2471
vn -0.2815 -0.9594 0.0154
vn -0.7303 0.6741 0.1101
vn -0.6387 -0.7680 0.0481
vn -0.9286 0.3508 -0.1207
vn -0.9530 0.1593 -0.2576
vn -0.8712 -0.4236 -0.2482
vn -0.7168 0.6579 -0.2310
vn -0.4997 0.8281 -0.2539
vn -0.8392 -0.1325 -0.5274
vn -0.8423 -0.2312 -0.4869
vn -0.7605 -0.0326 -0.6485
vn -0.7499 0.3378 -0.5688
vn -0.5007 -0.5844 -0.6386
vn -0.4863 0.6637 -0.5683
vn -0.2612 -0.9192 -0.2947
vn -0.4435 -0.0756 -0.8931
vn -0.1693 0.9607 -0.2200
vn -0.4635 -0.4472 -0.7650
vn -0.2424 0.8281 -0.5055
vn -0.4530 0.2959 -0.8410
vn -0.0886 -0.4347 -0.8962
vn -0.1339 0.6284 -0.7663
vn -0.1129 -0.7719 -0.6257
vn -0.1538 0.3068 -0.9393
vt 0.794392 0.293677
vt 0.770918 0.846073
vt 0.734375 0.717281
vt 0.741874 0.599249
vt 0.704616 0.531266
vt 0.734616 0.406655
vt 0.719918 0.218999
vt 0.685473 0.777944
vt 0.678319 0.660608
vt 0.689079 0.342315
vt 0.641330 0.592355
vt 0.655388 0.455750
vt 0.658359 0.250000
vt 0.603325 0.667055
vt 0.626504 0.341903
vt 0.640625 1.000000
vt 0.828125 1.000000
vt 0.271070 0.963605
vt 0.609744 0.781531
vt 0.591272 0.533801
vt 0.577540 0.283466
vt 0.634282 0.154944
vt 0.605595 0.875000
vt 0.546915 0.655822
vt 0.560034 0.470837
vt 0.543444 0.396147
vt 0.509405 0.537235
vt 0.515588 0.281661
vt 0.427294 0.845601
vt 0.512752 0.812500
vt 0.469690 0.406338
vt 0.593677 0.062500
vt 0.488436 0.735126
vt 0.464857 0.646732
vt 0.451782 0.530835
vt 0.453088 0.281661
vt 0.501208 0.149493
vt 0.390665 0.344178
vt 0.390588 0.718339
vt 0.392101 0.593583
vt 0.389282 0.469165
vt 0.479138 0.937500
vt 0.343750 0.531273
vt 0.383038 0.214491
vt 0.295532 0.530835
vt 0.336748 0.386136
vt 0.312669 0.780174
vt 0.312582 0.656006
vt 0.296914 0.344178
vt 0.296902 0.219059
vt 0.337208 0.091485
vt 0.237635 0.520573
vt 0.265786 0.437500
vt 0.293360 0.875000
vt 0.234338 0.718339
vt 0.221054 0.595265
vt 0.234338 0.281661
vt 0.221054 0.404735
vt 0.176363 0.337227
vt 0.171838 0.718339
vt 0.174680 0.625000
vt 0.141642 0.220296
vt 0.170820 0.841342
vt 0.147516 0.523151
vt 0.131538 0.415904
vt 0.199919 0.148465
vt 0.108913 0.719958
vt 0.088915 0.640758
vt 0.102021 0.334687
vt 0.076782 0.530835
vt 0.046914 0.344178
vt 0.066931 0.793298
vt 0.047036 0.437500
vt 0.066529 0.250000
vt 0.055088 0.153620
vt 0.734375 0.000000
vt 0.453125 0.000000
vt 0.150996 0.036395
vt 0.015664 0.655822
vt 1.000000 0.655822
vt 0.000000 0.399333
vt 0.992171 0.399333
vt 0.000000 0.784407
vt 0.975379 0.784407
vt 0.010664 0.538824
vt 0.993268 0.527207
vt 0.951782 0.469165
vt 0.000000 0.148089
vt 0.949425 0.148089
vt 0.937739 0.656003
vt 0.915655 0.537235
vt 0.906611 0.344360
vt 0.000000 0.273040
vt 0.959766 0.278455
vt 0.000000 0.062500
vt 0.879629 0.062500
vt 0.910279 0.750000
vt 0.031154 0.911618
vt 0.945396 0.911618
vt 0.872374 0.843190
vt 0.859414 0.655822
vt 0.858032 0.530836
vt 0.871569 0.414693
vt 0.868449 0.212346
vt 0.734224 0.937500
vt 0.814726 0.750000
vt 0.796945 0.653777
vt 0.785227 0.524248
vt 0.797630 0.405349
vt 0.790497 0.152675
s 0
f 6/6/1 10/10/1 1/1/1
f 98/110/2 30/32/2 85/96/2
f 4/4/3 5/5/3 96/108/3
f 74/76/4 85/96/4 30/32/4
f 5/5/5 12/12/5 6/6/5
f 93/105/6 21/23/6 2/2/6
f 10/10/7 13/13/7 7/7/7
f 3/3/8 9/9/8 4/4/8
f 7/7/9 13/13/9 20/22/9
f 9/9/10 11/11/10 5/5/10
f 21/23/11 17/19/11 8/8/11
f 93/105/12 16/16/12 40/42/12
f 12/12/13 15/15/13 10/10/13
f 8/8/14 14/14/14 9/9/14
f 12/12/15 11/11/15 18/20/15
f 11/11/16 14/14/16 18/20/16
f 18/20/17 23/25/17 12/12/17
f 15/15/18 19/21/18 13/13/18
f 23/25/19 24/26/19 15/15/19
f 21/23/20 28/30/20 17/19/20
f 14/14/21 17/19/21 22/24/21
f 20/22/22 26/28/22 35/37/22
f 18/20/23 22/24/23 25/27/23
f 19/21/24 24/26/24 26/28/24
f 28/30/25 31/33/25 17/19/25
f 21/23/26 40/42/26 27/29/26
f 23/25/27 29/31/27 24/26/27
f 25/27/28 32/34/28 33/35/28
f 26/28/29 29/31/29 34/36/29
f 35/37/30 34/36/30 42/44/30
f 30/32/31 35/37/31 49/51/31
f 74/77/32 30/32/32 49/51/32
f 42/44/33 49/51/33 35/37/33
f 33/35/34 38/40/34 39/41/34
f 33/35/35 39/41/35 29/31/35
f 27/29/36 37/39/36 31/33/36
f 40/42/37 52/54/37 27/29/37
f 39/41/38 44/46/38 36/38/38
f 27/29/39 52/54/39 45/47/39
f 27/29/40 45/47/40 37/39/40
f 37/39/41 45/47/41 46/48/41
f 37/39/42 46/48/42 38/40/42
f 38/40/43 46/48/43 41/43/43
f 44/46/44 48/50/44 42/44/44
f 41/43/45 46/48/45 43/45/45
f 43/45/46 51/53/46 44/46/46
f 47/49/47 55/57/47 48/50/47
f 48/50/48 55/57/48 64/66/48
f 48/50/49 64/66/49 49/51/49
f 43/45/50 54/56/50 50/52/50
f 51/53/51 56/58/51 47/49/51
f 45/47/52 52/54/52 61/63/52
f 47/49/53 56/58/53 55/57/53
f 50/52/54 56/58/54 51/53/54
f 53/55/55 59/61/55 54/56/55
f 64/66/56 74/78/56 49/51/56
f 50/52/57 54/56/57 62/64/57
f 52/54/58 16/18/58 61/63/58
f 61/63/59 58/60/59 53/55/59
f 62/64/60 63/65/60 56/58/60
f 56/58/61 63/65/61 57/59/61
f 54/56/62 59/61/62 62/64/62
f 58/60/63 66/68/63 59/61/63
f 57/59/64 63/65/64 67/69/64
f 61/63/65 65/67/65 58/60/65
f 67/69/66 72/74/66 60/62/66
f 60/62/67 73/75/67 64/66/67
f 62/64/68 66/68/68 68/70/68
f 68/70/69 71/73/69 63/65/69
f 63/65/70 69/71/70 67/69/70
f 60/62/71 72/74/71 73/75/71
f 66/68/72 70/72/72 75/79/72
f 68/70/73 75/79/73 78/85/73
f 73/75/74 85/95/74 74/78/74
f 78/85/75 76/81/75 71/73/75
f 71/73/76 76/81/76 69/71/76
f 70/72/77 87/98/77 77/83/77
f 69/71/78 76/81/78 84/93/78
f 69/71/79 84/93/79 72/74/79
f 73/75/80 84/93/80 80/88/80
f 75/80/81 77/84/81 81/90/81
f 78/86/82 79/87/82 76/82/82
f 79/87/83 83/92/83 76/82/83
f 78/86/84 81/90/84 82/91/84
f 80/89/85 84/94/85 92/104/85
f 87/99/86 88/100/86 77/84/86
f 83/92/87 92/104/87 84/94/87
f 81/90/88 86/97/88 89/101/88
f 82/91/89 89/101/89 90/102/89
f 92/104/90 98/110/90 80/89/90
f 83/92/91 91/103/91 1/1/91
f 88/100/92 94/106/92 86/97/92
f 90/102/93 97/109/93 91/103/93
f 88/100/94 93/105/94 2/2/94
f 89/101/95 94/106/95 95/107/95
f 92/104/96 1/1/96 98/110/96
f 90/102/97 95/107/97 96/108/97
f 87/99/98 16/17/98 93/105/98
f 94/106/99 2/2/99 3/3/99
f 95/107/100 3/3/100 4/4/100
f 96/108/101 6/6/101 97/109/101
f 96/108/102 5/5/102 6/6/102
f 3/3/103 2/2/103 8/8/103
f 1/1/104 10/10/104 7/7/104
f 98/110/105 7/7/105 20/22/105
f 98/110/106 20/22/106 30/32/106
f 6/6/107 12/12/107 10/10/107
f 2/2/108 21/23/108 8/8/108
f 3/3/109 8/8/109 9/9/109
f 5/5/110 4/4/110 9/9/110
f 13/13/111 10/10/111 15/15/111
f 5/5/112 11/11/112 12/12/112
f 93/105/113 40/42/113 21/23/113
f 8/8/114 17/19/114 14/14/114
f 9/9/115 14/14/115 11/11/115
f 13/13/116 19/21/116 20/22/116
f 12/12/117 23/25/117 15/15/117
f 19/21/118 15/15/118 24/26/118
f 18/20/119 14/14/119 22/24/119
f 30/32/120 20/22/120 35/37/120
f 20/22/121 19/21/121 26/28/121
f 23/25/122 18/20/122 25/27/122
f 22/24/123 17/19/123 31/33/123
f 21/23/124 27/29/124 28/30/124
f 26/28/125 24/26/125 29/31/125
f 22/24/126 31/33/126 32/34/126
f 25/27/127 22/24/127 32/34/127
f 23/25/128 25/27/128 29/31/128
f 25/27/129 33/35/129 29/31/129
f 35/37/130 26/28/130 34/36/130
f 28/30/131 27/29/131 31/33/131
f 33/35/132 32/34/132 38/40/132
f 29/31/133 39/41/133 36/38/133
f 34/36/134 29/31/134 36/38/134
f 34/36/135 36/38/135 42/44/135
f 32/34/136 31/33/136 37/39/136
f 32/34/137 37/39/137 38/40/137
f 39/41/138 38/40/138 41/43/138
f 39/41/139 41/43/139 44/46/139
f 36/38/140 44/46/140 42/44/140
f 44/46/141 47/49/141 48/50/141
f 42/44/142 48/50/142 49/51/142
f 41/43/143 43/45/143 44/46/143
f 40/42/144 16/18/144 52/54/144
f 44/46/145 51/53/145 47/49/145
f 46/48/146 45/47/146 53/55/146
f 46/48/147 53/55/147 54/56/147
f 43/45/148 46/48/148 54/56/148
f 43/45/149 50/52/149 51/53/149
f 45/47/150 61/63/150 53/55/150
f 64/66/151 55/57/151 60/62/151
f 53/55/152 58/60/152 59/61/152
f 50/52/153 62/64/153 56/58/153
f 55/57/154 56/58/154 57/59/154
f 55/57/155 57/59/155 60/62/155
f 58/60/156 65/67/156 66/68/156
f 62/64/157 59/61/157 66/68/157
f 16/18/158 87/98/158 61/63/158
f 61/63/159 70/72/159 65/67/159
f 57/59/160 67/69/160 60/62/160
f 64/66/161 73/75/161 74/78/161
f 62/64/162 68/70/162 63/65/162
f 63/65/163 71/73/163 69/71/163
f 61/63/164 87/98/164 70/72/164
f 67/69/165 69/71/165 72/74/165
f 65/67/166 70/72/166 66/68/166
f 68/70/167 66/68/167 75/79/167
f 68/70/168 78/85/168 71/73/168
f 73/75/169 80/88/169 85/95/169
f 75/79/170 70/72/170 77/83/170
f 73/75/171 72/74/171 84/93/171
f 78/86/172 75/80/172 81/90/172
f 79/87/173 78/86/173 82/91/173
f 84/94/174 76/82/174 83/92/174
f 81/90/175 77/84/175 86/97/175
f 77/84/176 88/100/176 86/97/176
f 79/87/177 82/91/177 91/103/177
f 79/87/178 91/103/178 83/92/178
f 82/91/179 90/102/179 91/103/179
f 82/91/180 81/90/180 89/101/180
f 83/92/181 1/1/181 92/104/181
f 89/101/182 86/97/182 94/106/182
f 80/89/183 98/110/183 85/96/183
f 90/102/184 96/108/184 97/109/184
f 88/100/185 87/99/185 93/105/185
f 1/1/186 91/103/186 97/109/186
f 88/100/187 2/2/187 94/106/187
f 90/102/188 89/101/188 95/107/188
f 97/109/189 6/6/189 1/1/189
f 95/107/190 94/106/190 3/3/190
f 98/110/191 1/1/191 7/7/191
f 96/108/192 95/107/192 4/4/192
