# Blender 3.3.21
# www.blender.org
mtllib spruce.mtl
o Cube.005
v -0.136142 13.994976 0.137880
v -0.136142 -0.232784 0.137880
v -0.136142 13.994976 -0.123561
v -0.136142 -0.232784 -0.123561
v 0.125299 13.994976 0.137880
v 0.125299 -0.232784 0.137880
v 0.125299 13.994976 -0.123561
v 0.125299 -0.232784 -0.123561
vn -1.0000 -0.0000 -0.0000
vn -0.0000 -0.0000 -1.0000
vn 1.0000 -0.0000 -0.0000
vn -0.0000 -0.0000 1.0000
vn -0.0000 1.0000 -0.0000
vn -0.0000 -1.0000 -0.0000
vt 0.375000 0.000000
vt 0.375000 1.000000
vt 0.125000 0.750000
vt 0.625000 0.000000
vt 0.625000 1.000000
vt 0.875000 0.750000
vt 0.125000 0.500000
vt 0.375000 0.250000
vt 0.625000 0.250000
vt 0.875000 0.500000
vt 0.375000 0.750000
vt 0.625000 0.750000
vt 0.375000 0.500000
vt 0.625000 0.500000
s 0
f 2/4/1 1/1/1 3/8/1
f 4/9/2 3/8/2 7/13/2
f 8/14/3 7/13/3 5/11/3
f 6/12/4 5/11/4 1/2/4
f 7/13/5 3/7/5 1/3/5
f 4/10/6 8/14/6 6/12/6
f 2/4/1 3/8/1 4/9/1
f 4/9/2 7/13/2 8/14/2
f 8/14/3 5/11/3 6/12/3
f 6/12/4 1/2/4 2/5/4
f 7/13/5 1/3/5 5/11/5
f 4/10/6 6/12/6 2/6/6
o Cone
v -0.007479 12.636325 -1.349743
v 0.256425 12.636325 -1.323750
v 0.510187 12.636325 -1.246773
v 0.744056 12.636325 -1.121767
v 0.949043 12.636325 -0.953538
v 1.117272 12.636325 -0.748551
v 1.242277 12.636325 -0.514683
v 1.319255 12.636325 -0.260920
v 1.345247 12.636325 0.002983
v 1.319255 12.636325 0.266887
v 1.242277 12.636325 0.520649
v 1.117272 12.636325 0.754517
v 0.949043 12.636325 0.959505
v 0.744056 12.636325 1.127734
v 0.510187 12.636325 1.252739
v 0.256425 12.636325 1.329717
v -0.007479 12.636325 1.355709
v -0.271382 12.636325 1.329717
v -0.525144 12.636325 1.252739
v -0.759013 12.636325 1.127734
v -0.964000 12.636325 0.959505
v -1.132229 12.636325 0.754517
v -1.257234 12.636325 0.520649
v -1.334212 12.636325 0.266887
v -1.360205 12.636325 0.002983
v -1.334212 12.636325 -0.260920
v -1.257234 12.636325 -0.514683
v -1.132229 12.636325 -0.748551
v -0.964000 12.636325 -0.953538
v -0.759013 12.636325 -1.121767
v -0.525144 12.636325 -1.246773
v -0.271382 12.636325 -1.323750
v -0.007479 14.636325 0.002983
vn 0.0813 0.5584 -0.8256
vn 0.2408 0.5584 -0.7939
vn 0.3911 0.5584 -0.7316
vn 0.5263 0.5584 -0.6413
vn 0.6413 0.5584 -0.5263
vn 0.7316 0.5584 -0.3911
vn 0.7939 0.5584 -0.2408
vn 0.8256 0.5584 -0.0813
vn 0.8256 0.5584 0.0813
vn 0.7939 0.5584 0.2408
vn 0.7316 0.5584 0.3911
vn 0.6413 0.5584 0.5263
vn 0.5263 0.5584 0.6413
vn 0.3911 0.5584 0.7316
vn 0.2408 0.5584 0.7939
vn 0.0813 0.5584 0.8256
vn -0.0813 0.5584 0.8256
vn -0.2408 0.5584 0.7939
vn -0.3911 0.5584 0.7316
vn -0.5263 0.5584 0.6413
vn -0.6413 0.5584 0.5263
vn -0.7316 0.5584 0.3911
vn -0.7939 0.5584 0.2408
vn -0.8256 0.5584 0.0813
vn -0.8256 0.5584 -0.0813
vn -0.7939 0.5584 -0.2408
vn -0.7316 0.5584 -0.3911
vn -0.6413 0.5584 -0.5263
vn -0.5263 0.5584 -0.6413
vn -0.3911 0.5584 -0.7316
vn -0.0000 -1.0000 -0.0000
vn -0.2408 0.5584 -0.7939
vn -0.0813 0.5584 -0.8256
vt 0.250000 0.490000
vt 0.750000 0.490000
vt 0.296822 0.485388
vt 0.796822 0.485388
vt 0.341844 0.471731
vt 0.841844 0.471731
vt 0.383337 0.449553
vt 0.883337 0.449553
vt 0.419706 0.419706
vt 0.919706 0.419706
vt 0.449553 0.383337
vt 0.949553 0.383337
vt 0.471731 0.341844
vt 0.971731 0.341844
vt 0.485388 0.296822
vt 0.985388 0.296822
vt 0.490000 0.250000
vt 0.990000 0.250000
vt 0.485388 0.203178
vt 0.985388 0.203178
vt 0.471731 0.158156
vt 0.971731 0.158156
vt 0.449553 0.116663
vt 0.949553 0.116663
vt 0.419706 0.080294
vt 0.919706 0.080294
vt 0.383337 0.050447
vt 0.883337 0.050447
vt 0.341844 0.028269
vt 0.841844 0.028269
vt 0.296822 0.014612
vt 0.796822 0.014612
vt 0.250000 0.010000
vt 0.750000 0.010000
vt 0.203178 0.014612
vt 0.703178 0.014612
vt 0.158156 0.028269
vt 0.658156 0.028269
vt 0.116663 0.050447
vt 0.616663 0.050447
vt 0.080294 0.080294
vt 0.580294 0.080294
vt 0.050447 0.116663
vt 0.550447 0.116663
vt 0.028269 0.158156
vt 0.528269 0.158156
vt 0.014612 0.203178
vt 0.514612 0.203178
vt 0.010000 0.250000
vt 0.510000 0.250000
vt 0.014612 0.296822
vt 0.514612 0.296822
vt 0.028269 0.341844
vt 0.528269 0.341844
vt 0.050447 0.383337
vt 0.550447 0.383337
vt 0.080294 0.419706
vt 0.580294 0.419706
vt 0.116663 0.449553
vt 0.616663 0.449553
vt 0.158156 0.471731
vt 0.658156 0.471731
vt 0.203178 0.485388
vt 0.703178 0.485388
vt 0.250000 0.250000
s 0
f 9/15/7 41/79/7 10/17/7
f 10/17/8 41/79/8 11/19/8
f 11/19/9 41/79/9 12/21/9
f 12/21/10 41/79/10 13/23/10
f 13/23/11 41/79/11 14/25/11
f 14/25/12 41/79/12 15/27/12
f 15/27/13 41/79/13 16/29/13
f 16/29/14 41/79/14 17/31/14
f 17/31/15 41/79/15 18/33/15
f 18/33/16 41/79/16 19/35/16
f 19/35/17 41/79/17 20/37/17
f 20/37/18 41/79/18 21/39/18
f 21/39/19 41/79/19 22/41/19
f 22/41/20 41/79/20 23/43/20
f 23/43/21 41/79/21 24/45/21
f 24/45/22 41/79/22 25/47/22
f 25/47/23 41/79/23 26/49/23
f 26/49/24 41/79/24 27/51/24
f 27/51/25 41/79/25 28/53/25
f 28/53/26 41/79/26 29/55/26
f 29/55/27 41/79/27 30/57/27
f 30/57/28 41/79/28 31/59/28
f 31/59/29 41/79/29 32/61/29
f 32/61/30 41/79/30 33/63/30
f 33/63/31 41/79/31 34/65/31
f 34/65/32 41/79/32 35/67/32
f 35/67/33 41/79/33 36/69/33
f 36/69/34 41/79/34 37/71/34
f 37/71/35 41/79/35 38/73/35
f 38/73/36 41/79/36 39/75/36
f 24/46/37 32/62/37 40/78/37
f 39/75/38 41/79/38 40/77/38
f 40/77/39 41/79/39 9/15/39
f 40/78/37 9/16/37 10/18/37
f 10/18/37 11/20/37 12/22/37
f 12/22/37 13/24/37 14/26/37
f 14/26/37 15/28/37 16/30/37
f 16/30/37 17/32/37 18/34/37
f 18/34/37 19/36/37 20/38/37
f 20/38/37 21/40/37 22/42/37
f 22/42/37 23/44/37 24/46/37
f 24/46/37 25/48/37 26/50/37
f 26/50/37 27/52/37 28/54/37
f 28/54/37 29/56/37 30/58/37
f 30/58/37 31/60/37 32/62/37
f 32/62/37 33/64/37 34/66/37
f 34/66/37 35/68/37 36/70/37
f 36/70/37 37/72/37 38/74/37
f 38/74/37 39/76/37 40/78/37
f 40/78/37 10/18/37 12/22/37
f 12/22/37 14/26/37 16/30/37
f 16/30/37 18/34/37 20/38/37
f 20/38/37 22/42/37 24/46/37
f 24/46/37 26/50/37 28/54/37
f 28/54/37 30/58/37 32/62/37
f 32/62/37 34/66/37 36/70/37
f 36/70/37 38/74/37 40/78/37
f 40/78/37 12/22/37 16/30/37
f 16/30/37 20/38/37 24/46/37
f 24/46/37 28/54/37 32/62/37
f 32/62/37 36/70/37 40/78/37
f 40/78/37 16/30/37 24/46/37
o Cone.001
v -0.008791 10.829381 -2.244068
v 0.428691 10.829381 -2.200980
v 0.849360 10.829381 -2.073371
v 1.237051 10.829381 -1.866146
v 1.576865 10.829381 -1.587268
v 1.855744 10.829381 -1.247454
v 2.062969 10.829381 -0.859762
v 2.190578 10.829381 -0.439093
v 2.233666 10.829381 -0.001611
v 2.190578 10.829381 0.435870
v 2.062969 10.829381 0.856540
v 1.855744 10.829381 1.244231
v 1.576865 10.829381 1.584045
v 1.237051 10.829381 1.862924
v 0.849360 10.829381 2.070149
v 0.428691 10.829381 2.197757
v -0.008791 10.829381 2.240846
v -0.446273 10.829381 2.197757
v -0.866942 10.829381 2.070149
v -1.254633 10.829381 1.862924
v -1.594447 10.829381 1.584045
v -1.873326 10.829381 1.244231
v -2.080551 10.829381 0.856540
v -2.208160 10.829381 0.435870
v -2.251248 10.829381 -0.001611
v -2.208160 10.829381 -0.439093
v -2.080551 10.829381 -0.859762
v -1.873326 10.829381 -1.247454
v -1.594447 10.829381 -1.587268
v -1.254633 10.829381 -1.866146
v -0.866942 10.829381 -2.073371
v -0.446273 10.829381 -2.200980
v -0.008791 12.829381 -0.001611
vn 0.0654 0.7447 -0.6642
vn 0.1937 0.7447 -0.6387
vn 0.3146 0.7447 -0.5886
vn 0.4234 0.7447 -0.5159
vn 0.5159 0.7447 -0.4234
vn 0.5886 0.7447 -0.3146
vn 0.6387 0.7447 -0.1937
vn 0.6642 0.7447 -0.0654
vn 0.6642 0.7447 0.0654
vn 0.6387 0.7447 0.1937
vn 0.5886 0.7447 0.3146
vn 0.5159 0.7447 0.4234
vn 0.4234 0.7447 0.5159
vn 0.3146 0.7447 0.5886
vn 0.1937 0.7447 0.6387
vn 0.0654 0.7447 0.6642
vn -0.0654 0.7447 0.6642
vn -0.1937 0.7447 0.6387
vn -0.3146 0.7447 0.5886
vn -0.4234 0.7447 0.5159
vn -0.5159 0.7447 0.4234
vn -0.5886 0.7447 0.3146
vn -0.6387 0.7447 0.1937
vn -0.6642 0.7447 0.0654
vn -0.6642 0.7447 -0.0654
vn -0.6387 0.7447 -0.1937
vn -0.5886 0.7447 -0.3146
vn -0.5159 0.7447 -0.4234
vn -0.4234 0.7447 -0.5159
vn -0.3146 0.7447 -0.5886
vn -0.0000 -1.0000 -0.0000
vn -0.1937 0.7447 -0.6387
vn -0.0654 0.7447 -0.6642
vt 0.250000 0.490000
vt 0.750000 0.490000
vt 0.296822 0.485388
vt 0.796822 0.485388
vt 0.341844 0.471731
vt 0.841844 0.471731
vt 0.383337 0.449553
vt 0.883337 0.449553
vt 0.419706 0.419706
vt 0.919706 0.419706
vt 0.449553 0.383337
vt 0.949553 0.383337
vt 0.471731 0.341844
vt 0.971731 0.341844
vt 0.485388 0.296822
vt 0.985388 0.296822
vt 0.490000 0.250000
vt 0.990000 0.250000
vt 0.485388 0.203178
vt 0.985388 0.203178
vt 0.471731 0.158156
vt 0.971731 0.158156
vt 0.449553 0.116663
vt 0.949553 0.116663
vt 0.419706 0.080294
vt 0.919706 0.080294
vt 0.383337 0.050447
vt 0.883337 0.050447
vt 0.341844 0.028269
vt 0.841844 0.028269
vt 0.296822 0.014612
vt 0.796822 0.014612
vt 0.250000 0.010000
vt 0.750000 0.010000
vt 0.203178 0.014612
vt 0.703178 0.014612
vt 0.158156 0.028269
vt 0.658156 0.028269
vt 0.116663 0.050447
vt 0.616663 0.050447
vt 0.080294 0.080294
vt 0.580294 0.080294
vt 0.050447 0.116663
vt 0.550447 0.116663
vt 0.028269 0.158156
vt 0.528269 0.158156
vt 0.014612 0.203178
vt 0.514612 0.203178
vt 0.010000 0.250000
vt 0.510000 0.250000
vt 0.014612 0.296822
vt 0.514612 0.296822
vt 0.028269 0.341844
vt 0.528269 0.341844
vt 0.050447 0.383337
vt 0.550447 0.383337
vt 0.080294 0.419706
vt 0.580294 0.419706
vt 0.116663 0.449553
vt 0.616663 0.449553
vt 0.158156 0.471731
vt 0.658156 0.471731
vt 0.203178 0.485388
vt 0.703178 0.485388
vt 0.250000 0.250000
s 0
f 42/80/40 74/144/40 43/82/40
f 43/82/41 74/144/41 44/84/41
f 44/84/42 74/144/42 45/86/42
f 45/86/43 74/144/43 46/88/43
f 46/88/44 74/144/44 47/90/44
f 47/90/45 74/144/45 48/92/45
f 48/92/46 74/144/46 49/94/46
f 49/94/47 74/144/47 50/96/47
f 50/96/48 74/144/48 51/98/48
f 51/98/49 74/144/49 52/100/49
f 52/100/50 74/144/50 53/102/50
f 53/102/51 74/144/51 54/104/51
f 54/104/52 74/144/52 55/106/52
f 55/106/53 74/144/53 56/108/53
f 56/108/54 74/144/54 57/110/54
f 57/110/55 74/144/55 58/112/55
f 58/112/56 74/144/56 59/114/56
f 59/114/57 74/144/57 60/116/57
f 60/116/58 74/144/58 61/118/58
f 61/118/59 74/144/59 62/120/59
f 62/120/60 74/144/60 63/122/60
f 63/122/61 74/144/61 64/124/61
f 64/124/62 74/144/62 65/126/62
f 65/126/63 74/144/63 66/128/63
f 66/128/64 74/144/64 67/130/64
f 67/130/65 74/144/65 68/132/65
f 68/132/66 74/144/66 69/134/66
f 69/134/67 74/144/67 70/136/67
f 70/136/68 74/144/68 71/138/68
f 71/138/69 74/144/69 72/140/69
f 57/111/70 65/127/70 73/143/70
f 72/140/71 74/144/71 73/142/71
f 73/142/72 74/144/72 42/80/72
f 73/143/70 42/81/70 43/83/70
f 43/83/70 44/85/70 45/87/70
f 45/87/70 46/89/70 47/91/70
f 47/91/70 48/93/70 49/95/70
f 49/95/70 50/97/70 51/99/70
f 51/99/70 52/101/70 53/103/70
f 53/103/70 54/105/70 55/107/70
f 55/107/70 56/109/70 57/111/70
f 57/111/70 58/113/70 59/115/70
f 59/115/70 60/117/70 61/119/70
f 61/119/70 62/121/70 63/123/70
f 63/123/70 64/125/70 65/127/70
f 65/127/70 66/129/70 67/131/70
f 67/131/70 68/133/70 69/135/70
f 69/135/70 70/137/70 71/139/70
f 71/139/70 72/141/70 73/143/70
f 73/143/70 43/83/70 49/95/70
f 43/83/70 45/87/70 49/95/70
f 45/87/70 47/91/70 49/95/70
f 49/95/70 51/99/70 57/111/70
f 51/99/70 53/103/70 57/111/70
f 53/103/70 55/107/70 57/111/70
f 57/111/70 59/115/70 65/127/70
f 59/115/70 61/119/70 65/127/70
f 61/119/70 63/123/70 65/127/70
f 65/127/70 67/131/70 73/143/70
f 67/131/70 69/135/70 73/143/70
f 69/135/70 71/139/70 73/143/70
f 73/143/70 49/95/70 57/111/70
o Cone.002
v -0.008791 8.520209 -3.090932
v 0.593906 8.520209 -3.031572
v 1.173441 8.520209 -2.855772
v 1.707544 8.520209 -2.570288
v 2.175689 8.520209 -2.186091
v 2.559886 8.520209 -1.717946
v 2.845370 8.520209 -1.183843
v 3.021170 8.520209 -0.604308
v 3.080530 8.520209 -0.001611
v 3.021170 8.520209 0.601085
v 2.845370 8.520209 1.180621
v 2.559886 8.520209 1.714724
v 2.175689 8.520209 2.182869
v 1.707544 8.520209 2.567065
v 1.173441 8.520209 2.852549
v 0.593906 8.520209 3.028349
v -0.008791 8.520209 3.087710
v -0.611488 8.520209 3.028349
v -1.191023 8.520209 2.852549
v -1.725126 8.520209 2.567065
v -2.193271 8.520209 2.182869
v -2.577468 8.520209 1.714724
v -2.862952 8.520209 1.180621
v -3.038752 8.520209 0.601085
v -3.098112 8.520209 -0.001611
v -3.038752 8.520209 -0.604308
v -2.862952 8.520209 -1.183843
v -2.577468 8.520209 -1.717946
v -2.193271 8.520209 -2.186091
v -1.725126 8.520209 -2.570288
v -1.191023 8.520209 -2.855772
v -0.611488 8.520209 -3.031572
v -0.008791 11.177337 -0.001611
vn 0.0641 0.7566 -0.6507
vn 0.1898 0.7566 -0.6257
vn 0.3082 0.7566 -0.5767
vn 0.4148 0.7566 -0.5055
vn 0.5055 0.7566 -0.4148
vn 0.5767 0.7566 -0.3082
vn 0.6257 0.7566 -0.1898
vn 0.6507 0.7566 -0.0641
vn 0.6507 0.7566 0.0641
vn 0.6257 0.7566 0.1898
vn 0.5767 0.7566 0.3082
vn 0.5055 0.7566 0.4148
vn 0.4148 0.7566 0.5055
vn 0.3082 0.7566 0.5767
vn 0.1898 0.7566 0.6257
vn 0.0641 0.7566 0.6507
vn -0.0641 0.7566 0.6507
vn -0.1898 0.7566 0.6257
vn -0.3082 0.7566 0.5767
vn -0.4148 0.7566 0.5055
vn -0.5055 0.7566 0.4148
vn -0.5767 0.7566 0.3082
vn -0.6257 0.7566 0.1898
vn -0.6507 0.7566 0.0641
vn -0.6507 0.7566 -0.0641
vn -0.6257 0.7566 -0.1898
vn -0.5767 0.7566 -0.3082
vn -0.5055 0.7566 -0.4148
vn -0.4148 0.7566 -0.5055
vn -0.3082 0.7566 -0.5767
vn -0.0000 -1.0000 -0.0000
vn -0.1898 0.7566 -0.6257
vn -0.0641 0.7566 -0.6507
vt 0.250000 0.490000
vt 0.750000 0.490000
vt 0.296822 0.485388
vt 0.796822 0.485388
vt 0.341844 0.471731
vt 0.841844 0.471731
vt 0.383337 0.449553
vt 0.883337 0.449553
vt 0.419706 0.419706
vt 0.919706 0.419706
vt 0.449553 0.383337
vt 0.949553 0.383337
vt 0.471731 0.341844
vt 0.971731 0.341844
vt 0.485388 0.296822
vt 0.985388 0.296822
vt 0.490000 0.250000
vt 0.990000 0.250000
vt 0.485388 0.203178
vt 0.985388 0.203178
vt 0.471731 0.158156
vt 0.971731 0.158156
vt 0.449553 0.116663
vt 0.949553 0.116663
vt 0.419706 0.080294
vt 0.919706 0.080294
vt 0.383337 0.050447
vt 0.883337 0.050447
vt 0.341844 0.028269
vt 0.841844 0.028269
vt 0.296822 0.014612
vt 0.796822 0.014612
vt 0.250000 0.010000
vt 0.750000 0.010000
vt 0.203178 0.014612
vt 0.703178 0.014612
vt 0.158156 0.028269
vt 0.658156 0.028269
vt 0.116663 0.050447
vt 0.616663 0.050447
vt 0.080294 0.080294
vt 0.580294 0.080294
vt 0.050447 0.116663
vt 0.550447 0.116663
vt 0.028269 0.158156
vt 0.528269 0.158156
vt 0.014612 0.203178
vt 0.514612 0.203178
vt 0.010000 0.250000
vt 0.510000 0.250000
vt 0.014612 0.296822
vt 0.514612 0.296822
vt 0.028269 0.341844
vt 0.528269 0.341844
vt 0.050447 0.383337
vt 0.550447 0.383337
vt 0.080294 0.419706
vt 0.580294 0.419706
vt 0.116663 0.449553
vt 0.616663 0.449553
vt 0.158156 0.471731
vt 0.658156 0.471731
vt 0.203178 0.485388
vt 0.703178 0.485388
vt 0.250000 0.250000
s 0
f 75/145/73 107/209/73 76/147/73
f 76/147/74 107/209/74 77/149/74
f 77/149/75 107/209/75 78/151/75
f 78/151/76 107/209/76 79/153/76
f 79/153/77 107/209/77 80/155/77
f 80/155/78 107/209/78 81/157/78
f 81/157/79 107/209/79 82/159/79
f 82/159/80 107/209/80 83/161/80
f 83/161/81 107/209/81 84/163/81
f 84/163/82 107/209/82 85/165/82
f 85/165/83 107/209/83 86/167/83
f 86/167/84 107/209/84 87/169/84
f 87/169/85 107/209/85 88/171/85
f 88/171/86 107/209/86 89/173/86
f 89/173/87 107/209/87 90/175/87
f 90/175/88 107/209/88 91/177/88
f 91/177/89 107/209/89 92/179/89
f 92/179/90 107/209/90 93/181/90
f 93/181/91 107/209/91 94/183/91
f 94/183/92 107/209/92 95/185/92
f 95/185/93 107/209/93 96/187/93
f 96/187/94 107/209/94 97/189/94
f 97/189/95 107/209/95 98/191/95
f 98/191/96 107/209/96 99/193/96
f 99/193/97 107/209/97 100/195/97
f 100/195/98 107/209/98 101/197/98
f 101/197/99 107/209/99 102/199/99
f 102/199/100 107/209/100 103/201/100
f 103/201/101 107/209/101 104/203/101
f 104/203/102 107/209/102 105/205/102
f 90/176/103 98/192/103 106/208/103
f 105/205/104 107/209/104 106/207/104
f 106/207/105 107/209/105 75/145/105
f 106/208/103 75/146/103 76/148/103
f 76/148/103 77/150/103 78/152/103
f 78/152/103 79/154/103 80/156/103
f 80/156/103 81/158/103 82/160/103
f 82/160/103 83/162/103 84/164/103
f 84/164/103 85/166/103 86/168/103
f 86/168/103 87/170/103 88/172/103
f 88/172/103 89/174/103 90/176/103
f 90/176/103 91/178/103 92/180/103
f 92/180/103 93/182/103 94/184/103
f 94/184/103 95/186/103 96/188/103
f 96/188/103 97/190/103 98/192/103
f 98/192/103 99/194/103 100/196/103
f 100/196/103 101/198/103 102/200/103
f 102/200/103 103/202/103 104/204/103
f 104/204/103 105/206/103 106/208/103
f 106/208/103 76/148/103 78/152/103
f 78/152/103 80/156/103 82/160/103
f 82/160/103 84/164/103 86/168/103
f 86/168/103 88/172/103 90/176/103
f 90/176/103 92/180/103 94/184/103
f 94/184/103 96/188/103 98/192/103
f 98/192/103 100/196/103 102/200/103
f 102/200/103 104/204/103 106/208/103
f 106/208/103 78/152/103 82/160/103
f 82/160/103 86/168/103 90/176/103
f 90/176/103 94/184/103 98/192/103
f 98/192/103 102/200/103 106/208/103
f 106/208/103 82/160/103 90/176/103
o Cone.003
v -0.008791 5.591173 -3.949106
v 0.761327 5.591173 -3.873256
v 1.501850 5.591173 -3.648621
v 2.184320 5.591173 -3.283833
v 2.782509 5.591173 -2.792912
v 3.273431 5.591173 -2.194722
v 3.638218 5.591173 -1.512252
v 3.862854 5.591173 -0.771729
v 3.938704 5.591173 -0.001611
v 3.862854 5.591173 0.768507
v 3.638218 5.591173 1.509030
v 3.273431 5.591173 2.191499
v 2.782509 5.591173 2.789689
v 2.184320 5.591173 3.280611
v 1.501850 5.591173 3.645398
v 0.761327 5.591173 3.870034
v -0.008791 5.591173 3.945884
v -0.778909 5.591173 3.870034
v -1.519432 5.591173 3.645398
v -2.201902 5.591173 3.280611
v -2.800091 5.591173 2.789689
v -3.291013 5.591173 2.191499
v -3.655800 5.591173 1.509030
v -3.880436 5.591173 0.768507
v -3.956286 5.591173 -0.001611
v -3.880436 5.591173 -0.771729
v -3.655800 5.591173 -1.512252
v -3.291013 5.591173 -2.194722
v -2.800091 5.591173 -2.792912
v -2.201902 5.591173 -3.283833
v -1.519432 5.591173 -3.648621
v -0.778909 5.591173 -3.873256
v -0.008791 8.986415 -0.001611
vn 0.0641 0.7566 -0.6507
vn 0.1898 0.7566 -0.6257
vn 0.3082 0.7566 -0.5767
vn 0.4148 0.7566 -0.5055
vn 0.5055 0.7566 -0.4148
vn 0.5767 0.7566 -0.3082
vn 0.6257 0.7566 -0.1898
vn 0.6507 0.7566 -0.0641
vn 0.6507 0.7566 0.0641
vn 0.6257 0.7566 0.1898
vn 0.5767 0.7566 0.3082
vn 0.5055 0.7566 0.4148
vn 0.4148 0.7566 0.5055
vn 0.3082 0.7566 0.5767
vn 0.1898 0.7566 0.6257
vn 0.0641 0.7566 0.6507
vn -0.0641 0.7566 0.6507
vn -0.1898 0.7566 0.6257
vn -0.3082 0.7566 0.5767
vn -0.4148 0.7566 0.5055
vn -0.5055 0.7566 0.4148
vn -0.5767 0.7566 0.3082
vn -0.6257 0.7566 0.1898
vn -0.6507 0.7566 0.0641
vn -0.6507 0.7566 -0.0641
vn -0.6257 0.7566 -0.1898
vn -0.5767 0.7566 -0.3082
vn -0.5055 0.7566 -0.4148
vn -0.4148 0.7566 -0.5055
vn -0.3082 0.7566 -0.5767
vn -0.0000 -1.0000 -0.0000
vn -0.1898 0.7566 -0.6257
vn -0.0641 0.7566 -0.6507
vt 0.250000 0.490000
vt 0.750000 0.490000
vt 0.296822 0.485388
vt 0.796822 0.485388
vt 0.341844 0.471731
vt 0.841844 0.471731
vt 0.383337 0.449553
vt 0.883337 0.449553
vt 0.419706 0.419706
vt 0.919706 0.419706
vt 0.449553 0.383337
vt 0.949553 0.383337
vt 0.471731 0.341844
vt 0.971731 0.341844
vt 0.485388 0.296822
vt 0.985388 0.296822
vt 0.490000 0.250000
vt 0.990000 0.250000
vt 0.485388 0.203178
vt 0.985388 0.203178
vt 0.471731 0.158156
vt 0.971731 0.158156
vt 0.449553 0.116663
vt 0.949553 0.116663
vt 0.419706 0.080294
vt 0.919706 0.080294
vt 0.383337 0.050447
vt 0.883337 0.050447
vt 0.341844 0.028269
vt 0.841844 0.028269
vt 0.296822 0.014612
vt 0.796822 0.014612
vt 0.250000 0.010000
vt 0.750000 0.010000
vt 0.203178 0.014612
vt 0.703178 0.014612
vt 0.158156 0.028269
vt 0.658156 0.028269
vt 0.116663 0.050447
vt 0.616663 0.050447
vt 0.080294 0.080294
vt 0.580294 0.080294
vt 0.050447 0.116663
vt 0.550447 0.116663
vt 0.028269 0.158156
vt 0.528269 0.158156
vt 0.014612 0.203178
vt 0.514612 0.203178
vt 0.010000 0.250000
vt 0.510000 0.250000
vt 0.014612 0.296822
vt 0.514612 0.296822
vt 0.028269 0.341844
vt 0.528269 0.341844
vt 0.050447 0.383337
vt 0.550447 0.383337
vt 0.080294 0.419706
vt 0.580294 0.419706
vt 0.116663 0.449553
vt 0.616663 0.449553
vt 0.158156 0.471731
vt 0.658156 0.471731
vt 0.203178 0.485388
vt 0.703178 0.485388
vt 0.250000 0.250000
s 0
f 108/210/106 140/274/106 109/212/106
f 109/212/107 140/274/107 110/214/107
f 110/214/108 140/274/108 111/216/108
f 111/216/109 140/274/109 112/218/109
f 112/218/110 140/274/110 113/220/110
f 113/220/111 140/274/111 114/222/111
f 114/222/112 140/274/112 115/224/112
f 115/224/113 140/274/113 116/226/113
f 116/226/114 140/274/114 117/228/114
f 117/228/115 140/274/115 118/230/115
f 118/230/116 140/274/116 119/232/116
f 119/232/117 140/274/117 120/234/117
f 120/234/118 140/274/118 121/236/118
f 121/236/119 140/274/119 122/238/119
f 122/238/120 140/274/120 123/240/120
f 123/240/121 140/274/121 124/242/121
f 124/242/122 140/274/122 125/244/122
f 125/244/123 140/274/123 126/246/123
f 126/246/124 140/274/124 127/248/124
f 127/248/125 140/274/125 128/250/125
f 128/250/126 140/274/126 129/252/126
f 129/252/127 140/274/127 130/254/127
f 130/254/128 140/274/128 131/256/128
f 131/256/129 140/274/129 132/258/129
f 132/258/130 140/274/130 133/260/130
f 133/260/131 140/274/131 134/262/131
f 134/262/132 140/274/132 135/264/132
f 135/264/133 140/274/133 136/266/133
f 136/266/134 140/274/134 137/268/134
f 137/268/135 140/274/135 138/270/135
f 123/241/136 131/257/136 139/273/136
f 138/270/137 140/274/137 139/272/137
f 139/272/138 140/274/138 108/210/138
f 139/273/136 108/211/136 109/213/136
f 109/213/136 110/215/136 111/217/136
f 111/217/136 112/219/136 113/221/136
f 113/221/136 114/223/136 115/225/136
f 115/225/136 116/227/136 117/229/136
f 117/229/136 118/231/136 119/233/136
f 119/233/136 120/235/136 121/237/136
f 121/237/136 122/239/136 123/241/136
f 123/241/136 124/243/136 125/245/136
f 125/245/136 126/247/136 127/249/136
f 127/249/136 128/251/136 129/253/136
f 129/253/136 130/255/136 131/257/136
f 131/257/136 132/259/136 133/261/136
f 133/261/136 134/263/136 135/265/136
f 135/265/136 136/267/136 137/269/136
f 137/269/136 138/271/136 139/273/136
f 139/273/136 109/213/136 111/217/136
f 111/217/136 113/221/136 115/225/136
f 115/225/136 117/229/136 119/233/136
f 119/233/136 121/237/136 123/241/136
f 123/241/136 125/245/136 127/249/136
f 127/249/136 129/253/136 131/257/136
f 131/257/136 133/261/136 135/265/136
f 135/265/136 137/269/136 139/273/136
f 139/273/136 111/217/136 115/225/136
f 115/225/136 119/233/136 123/241/136
f 123/241/136 127/249/136 131/257/136
f 131/257/136 135/265/136 139/273/136
f 139/273/136 115/225/136 123/241/136
o Cone.004
v -0.008791 1.925230 -4.869687
v 0.940924 1.925230 -4.776148
v 1.854141 1.925230 -4.499127
v 2.695767 1.925230 -4.049268
v 3.433458 1.925230 -3.443861
v 4.038866 1.925230 -2.706169
v 4.488725 1.925230 -1.864543
v 4.765746 1.925230 -0.951326
v 4.859285 1.925230 -0.001611
v 4.765746 1.925230 0.948103
v 4.488725 1.925230 1.861321
v 4.038866 1.925230 2.702947
v 3.433458 1.925230 3.440638
v 2.695767 1.925230 4.046046
v 1.854141 1.925230 4.495904
v 0.940924 1.925230 4.772926
v -0.008791 1.925230 4.866465
v -0.958505 1.925230 4.772926
v -1.871723 1.925230 4.495904
v -2.713349 1.925230 4.046046
v -3.451040 1.925230 3.440638
v -4.056448 1.925230 2.702947
v -4.506307 1.925230 1.861321
v -4.783328 1.925230 0.948103
v -4.876867 1.925230 -0.001611
v -4.783328 1.925230 -0.951326
v -4.506307 1.925230 -1.864543
v -4.056448 1.925230 -2.706169
v -3.451040 1.925230 -3.443861
v -2.713349 1.925230 -4.049268
v -1.871723 1.925230 -4.499127
v -0.958505 1.925230 -4.776148
v -0.008791 6.112265 -0.001611
vn 0.0641 0.7566 -0.6507
vn 0.1898 0.7566 -0.6257
vn 0.3082 0.7566 -0.5767
vn 0.4148 0.7566 -0.5055
vn 0.5055 0.7566 -0.4148
vn 0.5767 0.7566 -0.3082
vn 0.6257 0.7566 -0.1898
vn 0.6507 0.7566 -0.0641
vn 0.6507 0.7566 0.0641
vn 0.6257 0.7566 0.1898
vn 0.5767 0.7566 0.3082
vn 0.5055 0.7566 0.4148
vn 0.4148 0.7566 0.5055
vn 0.3082 0.7566 0.5767
vn 0.1898 0.7566 0.6257
vn 0.0641 0.7566 0.6507
vn -0.0641 0.7566 0.6507
vn -0.1898 0.7566 0.6257
vn -0.3082 0.7566 0.5767
vn -0.4148 0.7566 0.5055
vn -0.5055 0.7566 0.4148
vn -0.5767 0.7566 0.3082
vn -0.6257 0.7566 0.1898
vn -0.6507 0.7566 0.0641
vn -0.6507 0.7566 -0.0641
vn -0.6257 0.7566 -0.1898
vn -0.5767 0.7566 -0.3082
vn -0.5055 0.7566 -0.4148
vn -0.4148 0.7566 -0.5055
vn -0.3082 0.7566 -0.5767
vn -0.0000 -1.0000 -0.0000
vn -0.1898 0.7566 -0.6257
vn -0.0641 0.7566 -0.6507
vt 0.250000 0.490000
vt 0.750000 0.490000
vt 0.296822 0.485388
vt 0.796822 0.485388
vt 0.341844 0.471731
vt 0.841844 0.471731
vt 0.383337 0.449553
vt 0.883337 0.449553
vt 0.419706 0.419706
vt 0.919706 0.419706
vt 0.449553 0.383337
vt 0.949553 0.383337
vt 0.471731 0.341844
vt 0.971731 0.341844
vt 0.485388 0.296822
vt 0.985388 0.296822
vt 0.490000 0.250000
vt 0.990000 0.250000
vt 0.485388 0.203178
vt 0.985388 0.203178
vt 0.471731 0.158156
vt 0.971731 0.158156
vt 0.449553 0.116663
vt 0.949553 0.116663
vt 0.419706 0.080294
vt 0.919706 0.080294
vt 0.383337 0.050447
vt 0.883337 0.050447
vt 0.341844 0.028269
vt 0.841844 0.028269
vt 0.296822 0.014612
vt 0.796822 0.014612
vt 0.250000 0.010000
vt 0.750000 0.010000
vt 0.203178 0.014612
vt 0.703178 0.014612
vt 0.158156 0.028269
vt 0.658156 0.028269
vt 0.116663 0.050447
vt 0.616663 0.050447
vt 0.080294 0.080294
vt 0.580294 0.080294
vt 0.050447 0.116663
vt 0.550447 0.116663
vt 0.028269 0.158156
vt 0.528269 0.158156
vt 0.014612 0.203178
vt 0.514612 0.203178
vt 0.010000 0.250000
vt 0.510000 0.250000
vt 0.014612 0.296822
vt 0.514612 0.296822
vt 0.028269 0.341844
vt 0.528269 0.341844
vt 0.050447 0.383337
vt 0.550447 0.383337
vt 0.080294 0.419706
vt 0.580294 0.419706
vt 0.116663 0.449553
vt 0.616663 0.449553
vt 0.158156 0.471731
vt 0.658156 0.471731
vt 0.203178 0.485388
vt 0.703178 0.485388
vt 0.250000 0.250000
s 0
f 141/275/139 173/339/139 142/277/139
f 142/277/140 173/339/140 143/279/140
f 143/279/141 173/339/141 144/281/141
f 144/281/142 173/339/142 145/283/142
f 145/283/143 173/339/143 146/285/143
f 146/285/144 173/339/144 147/287/144
f 147/287/145 173/339/145 148/289/145
f 148/289/146 173/339/146 149/291/146
f 149/291/147 173/339/147 150/293/147
f 150/293/148 173/339/148 151/295/148
f 151/295/149 173/339/149 152/297/149
f 152/297/150 173/339/150 153/299/150
f 153/299/151 173/339/151 154/301/151
f 154/301/152 173/339/152 155/303/152
f 155/303/153 173/339/153 156/305/153
f 156/305/154 173/339/154 157/307/154
f 157/307/155 173/339/155 158/309/155
f 158/309/156 173/339/156 159/311/156
f 159/311/157 173/339/157 160/313/157
f 160/313/158 173/339/158 161/315/158
f 161/315/159 173/339/159 162/317/159
f 162/317/160 173/339/160 163/319/160
f 163/319/161 173/339/161 164/321/161
f 164/321/162 173/339/162 165/323/162
f 165/323/163 173/339/163 166/325/163
f 166/325/164 173/339/164 167/327/164
f 167/327/165 173/339/165 168/329/165
f 168/329/166 173/339/166 169/331/166
f 169/331/167 173/339/167 170/333/167
f 170/333/168 173/339/168 171/335/168
f 156/306/169 164/322/169 172/338/169
f 171/335/170 173/339/170 172/337/170
f 172/337/171 173/339/171 141/275/171
f 172/338/169 141/276/169 142/278/169
f 142/278/169 143/280/169 144/282/169
f 144/282/169 145/284/169 146/286/169
f 146/286/169 147/288/169 148/290/169
f 148/290/169 149/292/169 150/294/169
f 150/294/169 151/296/169 152/298/169
f 152/298/169 153/300/169 154/302/169
f 154/302/169 155/304/169 156/306/169
f 156/306/169 157/308/169 158/310/169
f 158/310/169 159/312/169 160/314/169
f 160/314/169 161/316/169 162/318/169
f 162/318/169 163/320/169 164/322/169
f 164/322/169 165/324/169 166/326/169
f 166/326/169 167/328/169 168/330/169
f 168/330/169 169/332/169 170/334/169
f 170/334/169 171/336/169 172/338/169
f 172/338/169 142/278/169 144/282/169
f 144/282/169 146/286/169 148/290/169
f 148/290/169 150/294/169 152/298/169
f 152/298/169 154/302/169 156/306/169
f 156/306/169 158/310/169 160/314/169
f 160/314/169 162/318/169 164/322/169
f 164/322/169 166/326/169 168/330/169
f 168/330/169 170/334/169 172/338/169
f 172/338/169 144/282/169 148/290/169
f 148/290/169 152/298/169 156/306/169
f 156/306/169 160/314/169 164/322/169
f 164/322/169 168/330/169 172/338/169
f 172/338/169 148/290/169 156/306/169
